<svg width="23" height="24" viewBox="0 0 23 24" fill="none" xmlns="http://www.w3.org/2000/svg">
<path d="M16.0889 2H6.97096C4.45311 2 2.41199 4.23858 2.41199 7V17C2.41199 19.7614 4.45311 22 6.97096 22H16.0889C18.6067 22 20.6479 19.7614 20.6479 17V7C20.6479 4.23858 18.6067 2 16.0889 2Z" stroke="white" stroke-width="2" stroke-linecap="round" stroke-linejoin="round"/>
<path d="M15.1776 11.3703C15.2902 12.2025 15.1605 13.0525 14.8072 13.7993C14.4539 14.5461 13.8949 15.1517 13.2096 15.53C12.5244 15.9082 11.7479 16.0399 10.9905 15.9062C10.2331 15.7726 9.53341 15.3804 8.99097 14.7855C8.44852 14.1905 8.09093 13.4232 7.96905 12.5925C7.84718 11.7619 7.96723 10.9102 8.31212 10.1587C8.65702 9.40716 9.2092 8.79404 9.89013 8.40654C10.5711 8.01904 11.3461 7.87689 12.1049 8.0003C12.8789 8.12619 13.5955 8.52176 14.1489 9.12861C14.7022 9.73545 15.0629 10.5214 15.1776 11.3703Z" stroke="white" stroke-width="2" stroke-linecap="round" stroke-linejoin="round"/>
<path d="M16.5448 6.5H16.5537" stroke="white" stroke-width="2" stroke-linecap="round" stroke-linejoin="round"/>
</svg>
