<svg width="23" height="24" viewBox="0 0 23 24" fill="none" xmlns="http://www.w3.org/2000/svg">
<path d="M15.3516 8C16.8026 8 18.1941 8.63214 19.22 9.75736C20.246 10.8826 20.8224 12.4087 20.8224 14V21H17.1752V14C17.1752 13.4696 16.9831 12.9609 16.6411 12.5858C16.2991 12.2107 15.8353 12 15.3516 12C14.868 12 14.4041 12.2107 14.0622 12.5858C13.7202 12.9609 13.528 13.4696 13.528 14V21H9.88086V14C9.88086 12.4087 10.4572 10.8826 11.4832 9.75736C12.5092 8.63214 13.9007 8 15.3516 8Z" fill="white" stroke="white" stroke-width="1.5" stroke-linecap="round" stroke-linejoin="round"/>
<path d="M6.23336 9H2.58618V21H6.23336V9Z" fill="white" stroke="white" stroke-width="1.5" stroke-linecap="round" stroke-linejoin="round"/>
<path d="M4.40977 6C5.41691 6 6.23336 5.10457 6.23336 4C6.23336 2.89543 5.41691 2 4.40977 2C3.40263 2 2.58618 2.89543 2.58618 4C2.58618 5.10457 3.40263 6 4.40977 6Z" fill="white" stroke="white" stroke-width="1.5" stroke-linecap="round" stroke-linejoin="round"/>
</svg>
