<?xml version="1.0" encoding="UTF-8"?>
<svg version="1.1" xmlns="http://www.w3.org/2000/svg" width="124" height="124">
<path d="M0 0 C2.6471589 1.59845895 4.88982786 3.33080028 7.23828125 5.3515625 C7.89441406 5.8465625 8.55054688 6.3415625 9.2265625 6.8515625 C14.6165837 11.10839826 16.65461691 14.73084608 18.23828125 21.3515625 C19.51574219 21.09503906 20.79320313 20.83851562 22.109375 20.57421875 C28.05920049 19.91312703 32.1332458 22.06698603 37.30078125 24.7890625 C38.16638672 25.22283203 39.03199219 25.65660156 39.92382812 26.10351562 C42.03934078 27.16711591 44.14259185 28.24956025 46.23828125 29.3515625 C46.15065125 32.20709194 46.04369118 35.05975239 45.92578125 37.9140625 C45.90322266 38.71392578 45.88066406 39.51378906 45.85742188 40.33789062 C45.6149399 45.73862546 44.49343698 49.46035342 42.23828125 54.3515625 C41.95914644 58.32612588 41.95914644 58.32612588 43.6953125 61.51171875 C45.67418193 65.8684889 45.79241632 70.0603232 45.92578125 74.7890625 C45.95994141 75.61599609 45.99410156 76.44292969 46.02929688 77.29492188 C46.11096746 79.31335194 46.17631849 81.33243134 46.23828125 83.3515625 C43.25425082 84.90529453 40.24914891 86.41308921 37.23828125 87.9140625 C36.39910156 88.35169922 35.55992188 88.78933594 34.6953125 89.24023438 C28.96367179 92.0616234 25.49654559 92.79299144 19.23828125 91.3515625 C19.04234375 91.92003906 18.84640625 92.48851563 18.64453125 93.07421875 C14.77934884 103.05371989 6.67220258 108.73539159 -2.76171875 113.3515625 C-7.31739509 109.88207751 -11.83049308 106.36745931 -16.19921875 102.6640625 C-16.83730469 102.12394531 -17.47539063 101.58382812 -18.1328125 101.02734375 C-21.2387366 97.83204054 -21.76171875 95.8441472 -21.76171875 91.3515625 C-23.06109375 91.5784375 -24.36046875 91.8053125 -25.69921875 92.0390625 C-30.85730032 92.61761509 -35.13346924 91.69356828 -39.76171875 89.3515625 C-40.50228516 88.60712891 -40.50228516 88.60712891 -41.2578125 87.84765625 C-43.04444523 86.07030472 -44.57931663 85.47993044 -46.94921875 84.6640625 C-47.66464844 84.41269531 -48.38007812 84.16132812 -49.1171875 83.90234375 C-49.65988281 83.72058594 -50.20257813 83.53882812 -50.76171875 83.3515625 C-50.76171875 81.3715625 -50.76171875 79.3915625 -50.76171875 77.3515625 C-50.10171875 77.3515625 -49.44171875 77.3515625 -48.76171875 77.3515625 C-48.79652344 76.39894531 -48.83132812 75.44632812 -48.8671875 74.46484375 C-48.89425781 73.21058594 -48.92132813 71.95632812 -48.94921875 70.6640625 C-48.98402344 69.42269531 -49.01882812 68.18132812 -49.0546875 66.90234375 C-48.74110734 63.10175222 -47.79619948 61.48605118 -45.76171875 58.3515625 C-45.38235121 54.47302106 -45.38235121 54.47302106 -47.21875 52.24609375 C-49.50296129 47.96102902 -49.3307943 43.82679383 -49.44921875 39.0390625 C-49.48337891 38.10771484 -49.51753906 37.17636719 -49.55273438 36.21679688 C-49.63487816 33.92850578 -49.70413537 31.64058146 -49.76171875 29.3515625 C-47.33760685 28.13950655 -44.91274375 26.9300158 -42.48046875 25.734375 C-40.84952086 24.90484116 -39.23648079 24.03602776 -37.66796875 23.09375 C-32.19397846 19.88563274 -27.91061744 20.19234389 -21.76171875 21.3515625 C-21.66890625 20.083125 -21.66890625 20.083125 -21.57421875 18.7890625 C-19.8166808 11.35332502 -15.23222976 7.62327929 -9.26171875 3.2890625 C-8.70387695 2.87035889 -8.14603516 2.45165527 -7.57128906 2.02026367 C-4.74893931 0.07187544 -3.41574087 -0.80199856 0 0 Z " fill="#ECC8B0" transform="translate(64.76171875,5.6484375)"/>
<path d="M0 0 C2.6471589 1.59845895 4.88982786 3.33080028 7.23828125 5.3515625 C7.89441406 5.8465625 8.55054688 6.3415625 9.2265625 6.8515625 C14.6165837 11.10839826 16.65461691 14.73084608 18.23828125 21.3515625 C19.51574219 21.09503906 20.79320313 20.83851562 22.109375 20.57421875 C28.05920049 19.91312703 32.1332458 22.06698603 37.30078125 24.7890625 C38.16638672 25.22283203 39.03199219 25.65660156 39.92382812 26.10351562 C42.03934078 27.16711591 44.14259185 28.24956025 46.23828125 29.3515625 C46.15065125 32.20709194 46.04369118 35.05975239 45.92578125 37.9140625 C45.90322266 38.71392578 45.88066406 39.51378906 45.85742188 40.33789062 C45.6149399 45.73862546 44.49343698 49.46035342 42.23828125 54.3515625 C41.95914644 58.32612588 41.95914644 58.32612588 43.6953125 61.51171875 C45.67418193 65.8684889 45.79241632 70.0603232 45.92578125 74.7890625 C45.95994141 75.61599609 45.99410156 76.44292969 46.02929688 77.29492188 C46.11096746 79.31335194 46.17631849 81.33243134 46.23828125 83.3515625 C43.25425082 84.90529453 40.24914891 86.41308921 37.23828125 87.9140625 C36.39910156 88.35169922 35.55992188 88.78933594 34.6953125 89.24023438 C28.96367179 92.0616234 25.49654559 92.79299144 19.23828125 91.3515625 C19.04234375 91.92003906 18.84640625 92.48851563 18.64453125 93.07421875 C14.77934884 103.05371989 6.67220258 108.73539159 -2.76171875 113.3515625 C-5.77154227 111.03065414 -8.77025729 108.69609002 -11.76171875 106.3515625 C-12.39980469 105.85398437 -13.03789063 105.35640625 -13.6953125 104.84375 C-15.08984681 103.72678487 -16.4319727 102.54492434 -17.76171875 101.3515625 C-17.76171875 100.6915625 -17.76171875 100.0315625 -17.76171875 99.3515625 C-13.87165102 100.73937045 -10.79613167 102.5667852 -7.44921875 104.9765625 C-6.56621094 105.60820313 -5.68320312 106.23984375 -4.7734375 106.890625 C-4.10957031 107.37273437 -3.44570313 107.85484375 -2.76171875 108.3515625 C0.47633231 106.83396084 3.3598667 105.0081445 6.30078125 102.9765625 C7.15800781 102.39132813 8.01523438 101.80609375 8.8984375 101.203125 C13.52561325 97.54155354 14.81799731 94.03269825 16.23828125 88.3515625 C16.92792969 88.40957031 17.61757812 88.46757813 18.328125 88.52734375 C25.80120263 88.88613349 30.05822362 87.390016 36.23828125 83.3515625 C38.96010936 81.81828315 40.0372798 81.3515625 43.23828125 81.3515625 C42.91730469 80.50851563 42.59632812 79.66546875 42.265625 78.796875 C40.85414762 74.06332728 40.84343226 69.5060929 40.6796875 64.59375 C40.21081046 61.14978589 39.3885556 59.96260993 37.23828125 57.3515625 C37.93232544 54.82776545 38.92634997 52.86252455 40.28515625 50.63671875 C41.58829258 47.512396 41.63412803 44.66113089 41.80078125 41.2890625 C42.14274775 34.638163 42.14274775 34.638163 43.23828125 31.3515625 C42.24828125 31.1246875 41.25828125 30.8978125 40.23828125 30.6640625 C37.16679252 29.8241544 35.10030608 28.61331778 32.55078125 26.7265625 C27.45887954 23.30183177 22.15090472 23.90811574 16.23828125 24.3515625 C16.09132813 23.75988281 15.944375 23.16820313 15.79296875 22.55859375 C14.16898796 16.83732809 12.20386474 13.72067236 7.23828125 10.3515625 C5.77714715 9.25110474 4.31886472 8.14685169 2.86328125 7.0390625 C1.65614236 6.14162029 0.44823379 5.24520765 -0.76171875 4.3515625 C-3.39738043 5.6460689 -5.96838551 7.00925486 -8.51171875 8.4765625 C-9.58421875 9.0953125 -10.65671875 9.7140625 -11.76171875 10.3515625 C-10.81442338 12.50967638 -10.81442338 12.50967638 -8.76171875 14.3515625 C-6.85179266 14.38449226 -4.93906782 14.40416162 -3.03125 14.30859375 C0.8825775 14.38269375 4.85237307 15.36595333 8.23828125 17.3515625 C8.9921875 19.4609375 8.9921875 19.4609375 9.23828125 21.3515625 C8.57828125 21.3515625 7.91828125 21.3515625 7.23828125 21.3515625 C7.23828125 20.3615625 7.23828125 19.3715625 7.23828125 18.3515625 C5.2629138 18.69942958 5.2629138 18.69942958 3.23828125 19.3515625 C2.90828125 20.0115625 2.57828125 20.6715625 2.23828125 21.3515625 C1.74328125 19.8665625 1.74328125 19.8665625 1.23828125 18.3515625 C0.57828125 18.0215625 -0.08171875 17.6915625 -0.76171875 17.3515625 C-0.55546875 18.4446875 -0.34921875 19.5378125 -0.13671875 20.6640625 C0.23828125 24.3515625 0.23828125 24.3515625 -1.76171875 27.3515625 C-0.81296875 27.6196875 0.13578125 27.8878125 1.11328125 28.1640625 C4.23828125 29.3515625 4.23828125 29.3515625 6.23828125 32.3515625 C5.57828125 32.3515625 4.91828125 32.3515625 4.23828125 32.3515625 C3.57828125 34.3315625 2.91828125 36.3115625 2.23828125 38.3515625 C2.89828125 38.3515625 3.55828125 38.3515625 4.23828125 38.3515625 C4.73328125 37.3615625 4.73328125 37.3615625 5.23828125 36.3515625 C5.50640625 37.3209375 5.77453125 38.2903125 6.05078125 39.2890625 C6.44265625 40.2996875 6.83453125 41.3103125 7.23828125 42.3515625 C8.22828125 42.6815625 9.21828125 43.0115625 10.23828125 43.3515625 C10.56828125 42.0315625 10.89828125 40.7115625 11.23828125 39.3515625 C11.89828125 39.3515625 12.55828125 39.3515625 13.23828125 39.3515625 C12.57828125 38.0315625 11.91828125 36.7115625 11.23828125 35.3515625 C12.22828125 35.0215625 13.21828125 34.6915625 14.23828125 34.3515625 C13.88765625 33.5884375 13.53703125 32.8253125 13.17578125 32.0390625 C12.23828125 29.3515625 12.23828125 29.3515625 13.23828125 26.3515625 C10.59828125 27.3415625 7.95828125 28.3315625 5.23828125 29.3515625 C5.23828125 28.6915625 5.23828125 28.0315625 5.23828125 27.3515625 C4.57828125 27.3515625 3.91828125 27.3515625 3.23828125 27.3515625 C3.23828125 26.3615625 3.23828125 25.3715625 3.23828125 24.3515625 C4.22828125 24.0215625 5.21828125 23.6915625 6.23828125 23.3515625 C6.23828125 24.0115625 6.23828125 24.6715625 6.23828125 25.3515625 C8.22319767 25.08480046 8.22319767 25.08480046 10.23828125 24.3515625 C10.73328125 22.8665625 10.73328125 22.8665625 11.23828125 21.3515625 C11.89828125 21.3515625 12.55828125 21.3515625 13.23828125 21.3515625 C16.18284915 26.34452545 16.87324061 30.68713876 17.23828125 36.3515625 C18.50285156 36.44244141 18.50285156 36.44244141 19.79296875 36.53515625 C20.88867188 36.61894531 21.984375 36.70273437 23.11328125 36.7890625 C24.20382813 36.87027344 25.294375 36.95148437 26.41796875 37.03515625 C29.23828125 37.3515625 29.23828125 37.3515625 31.23828125 38.3515625 C30.8111304 41.34161844 30.26272151 43.31148047 28.67578125 45.9140625 C26.89962457 48.45417179 26.89962457 48.45417179 27.23828125 52.3515625 C25.91828125 52.3515625 24.59828125 52.3515625 23.23828125 52.3515625 C23.23828125 51.6915625 23.23828125 51.0315625 23.23828125 50.3515625 C21.75328125 50.8465625 21.75328125 50.8465625 20.23828125 51.3515625 C19.90828125 53.0015625 19.57828125 54.6515625 19.23828125 56.3515625 C19.89828125 56.6815625 20.55828125 57.0115625 21.23828125 57.3515625 C19.25828125 57.6815625 17.27828125 58.0115625 15.23828125 58.3515625 C15.23828125 57.6915625 15.23828125 57.0315625 15.23828125 56.3515625 C15.89828125 56.3515625 16.55828125 56.3515625 17.23828125 56.3515625 C16.66375379 52.42080606 16.66375379 52.42080606 14.23828125 49.3515625 C14.56828125 49.0215625 14.89828125 48.6915625 15.23828125 48.3515625 C14.57828125 48.0215625 13.91828125 47.6915625 13.23828125 47.3515625 C13.23828125 46.6915625 13.23828125 46.0315625 13.23828125 45.3515625 C12.88765625 45.7846875 12.53703125 46.2178125 12.17578125 46.6640625 C6.93005712 51.232919 1.89165177 51.7017399 -4.76171875 51.3515625 C-4.43171875 49.0415625 -4.10171875 46.7315625 -3.76171875 44.3515625 C-5.41171875 44.0215625 -7.06171875 43.6915625 -8.76171875 43.3515625 C-9.42171875 44.6715625 -10.08171875 45.9915625 -10.76171875 47.3515625 C-9.44171875 47.3515625 -8.12171875 47.3515625 -6.76171875 47.3515625 C-6.76171875 48.0115625 -6.76171875 48.6715625 -6.76171875 49.3515625 C-9.07171875 49.0215625 -11.38171875 48.6915625 -13.76171875 48.3515625 C-14.09171875 47.3615625 -14.42171875 46.3715625 -14.76171875 45.3515625 C-15.42171875 45.3515625 -16.08171875 45.3515625 -16.76171875 45.3515625 C-18.38671875 43.8515625 -18.38671875 43.8515625 -19.76171875 42.3515625 C-20.75171875 44.0015625 -21.74171875 45.6515625 -22.76171875 47.3515625 C-21.44171875 47.6815625 -20.12171875 48.0115625 -18.76171875 48.3515625 C-19.09171875 49.6715625 -19.42171875 50.9915625 -19.76171875 52.3515625 C-21.41171875 52.0215625 -23.06171875 51.6915625 -24.76171875 51.3515625 C-25.42171875 52.3415625 -26.08171875 53.3315625 -26.76171875 54.3515625 C-27.75171875 53.6915625 -28.74171875 53.0315625 -29.76171875 52.3515625 C-29.76171875 53.6715625 -29.76171875 54.9915625 -29.76171875 56.3515625 C-31.08171875 56.3515625 -32.40171875 56.3515625 -33.76171875 56.3515625 C-34.09171875 57.6715625 -34.42171875 58.9915625 -34.76171875 60.3515625 C-35.42171875 60.3515625 -36.08171875 60.3515625 -36.76171875 60.3515625 C-36.10171875 61.6715625 -35.44171875 62.9915625 -34.76171875 64.3515625 C-36.24671875 64.8465625 -36.24671875 64.8465625 -37.76171875 65.3515625 C-37.76171875 66.0115625 -37.76171875 66.6715625 -37.76171875 67.3515625 C-35.78171875 67.3515625 -33.80171875 67.3515625 -31.76171875 67.3515625 C-31.76171875 68.0115625 -31.76171875 68.6715625 -31.76171875 69.3515625 C-33.74171875 70.3415625 -33.74171875 70.3415625 -35.76171875 71.3515625 C-34.44171875 71.3515625 -33.12171875 71.3515625 -31.76171875 71.3515625 C-30.77171875 70.3615625 -30.77171875 70.3615625 -29.76171875 69.3515625 C-29.43171875 70.6715625 -29.10171875 71.9915625 -28.76171875 73.3515625 C-29.40109375 73.4546875 -30.04046875 73.5578125 -30.69921875 73.6640625 C-31.37984375 73.8909375 -32.06046875 74.1178125 -32.76171875 74.3515625 C-33.09171875 75.3415625 -33.42171875 76.3315625 -33.76171875 77.3515625 C-31.12171875 76.0315625 -28.48171875 74.7115625 -25.76171875 73.3515625 C-25.10171875 74.6715625 -24.44171875 75.9915625 -23.76171875 77.3515625 C-24.75171875 77.8465625 -24.75171875 77.8465625 -25.76171875 78.3515625 C-25.76171875 77.3615625 -25.76171875 76.3715625 -25.76171875 75.3515625 C-29.01021852 77.07382746 -29.01021852 77.07382746 -29.76171875 80.3515625 C-27.78171875 79.8565625 -27.78171875 79.8565625 -25.76171875 79.3515625 C-25.26671875 80.3415625 -25.26671875 80.3415625 -24.76171875 81.3515625 C-24.10171875 81.3515625 -23.44171875 81.3515625 -22.76171875 81.3515625 C-22.10171875 80.0315625 -21.44171875 78.7115625 -20.76171875 77.3515625 C-20.43171875 78.6715625 -20.10171875 79.9915625 -19.76171875 81.3515625 C-19.10171875 81.3515625 -18.44171875 81.3515625 -17.76171875 81.3515625 C-17.10171875 80.6915625 -16.44171875 80.0315625 -15.76171875 79.3515625 C-14.77171875 79.3515625 -13.78171875 79.3515625 -12.76171875 79.3515625 C-12.43171875 78.6915625 -12.10171875 78.0315625 -11.76171875 77.3515625 C-10.77171875 77.3515625 -9.78171875 77.3515625 -8.76171875 77.3515625 C-9.09171875 76.0315625 -9.42171875 74.7115625 -9.76171875 73.3515625 C-8.77171875 72.6915625 -7.78171875 72.0315625 -6.76171875 71.3515625 C-8.41171875 71.0215625 -10.06171875 70.6915625 -11.76171875 70.3515625 C-11.76171875 69.6915625 -11.76171875 69.0315625 -11.76171875 68.3515625 C-13.41171875 68.3515625 -15.06171875 68.3515625 -16.76171875 68.3515625 C-17.09171875 66.7015625 -17.42171875 65.0515625 -17.76171875 63.3515625 C-17.10171875 63.3515625 -16.44171875 63.3515625 -15.76171875 63.3515625 C-15.43171875 64.3415625 -15.10171875 65.3315625 -14.76171875 66.3515625 C-13.77171875 66.8465625 -13.77171875 66.8465625 -12.76171875 67.3515625 C-13.09171875 65.7015625 -13.42171875 64.0515625 -13.76171875 62.3515625 C-12.44171875 63.0115625 -11.12171875 63.6715625 -9.76171875 64.3515625 C-9.76171875 65.3415625 -9.76171875 66.3315625 -9.76171875 67.3515625 C-7.78171875 66.8565625 -7.78171875 66.8565625 -5.76171875 66.3515625 C-6.42171875 65.3615625 -7.08171875 64.3715625 -7.76171875 63.3515625 C-7.10171875 62.3615625 -6.44171875 61.3715625 -5.76171875 60.3515625 C-6.75171875 60.0215625 -7.74171875 59.6915625 -8.76171875 59.3515625 C-8.76171875 58.3615625 -8.76171875 57.3715625 -8.76171875 56.3515625 C-10.08171875 56.3515625 -11.40171875 56.3515625 -12.76171875 56.3515625 C-12.76171875 55.0315625 -12.76171875 53.7115625 -12.76171875 52.3515625 C-14.08171875 53.0115625 -15.40171875 53.6715625 -16.76171875 54.3515625 C-16.76171875 52.7015625 -16.76171875 51.0515625 -16.76171875 49.3515625 C-8.79711466 50.85837949 -8.79711466 50.85837949 -6.13671875 54.7265625 C-5.49863281 55.63535156 -5.49863281 55.63535156 -4.84765625 56.5625 C-2.05653946 61.16081471 -2.29031977 66.15046038 -2.76171875 71.3515625 C-3.53706286 73.90298555 -4.52098628 75.97349194 -5.76171875 78.3515625 C-2.79171875 78.3515625 0.17828125 78.3515625 3.23828125 78.3515625 C2.76390625 77.5059375 2.28953125 76.6603125 1.80078125 75.7890625 C-1.27171821 69.02956368 -0.81360897 64.23142971 1.23828125 57.3515625 C1.89828125 57.3515625 2.55828125 57.3515625 3.23828125 57.3515625 C3.23828125 56.3615625 3.23828125 55.3715625 3.23828125 54.3515625 C3.89828125 54.3515625 4.55828125 54.3515625 5.23828125 54.3515625 C5.56828125 53.3615625 5.89828125 52.3715625 6.23828125 51.3515625 C8.54828125 51.0215625 10.85828125 50.6915625 13.23828125 50.3515625 C13.23828125 51.0115625 13.23828125 51.6715625 13.23828125 52.3515625 C12.24828125 52.6815625 11.25828125 53.0115625 10.23828125 53.3515625 C9.90828125 54.3415625 9.57828125 55.3315625 9.23828125 56.3515625 C7.91828125 56.3515625 6.59828125 56.3515625 5.23828125 56.3515625 C5.83640625 56.9496875 6.43453125 57.5478125 7.05078125 58.1640625 C8.77994792 59.89322917 10.50911458 61.62239583 12.23828125 63.3515625 C10.25828125 63.8465625 10.25828125 63.8465625 8.23828125 64.3515625 C7.90828125 63.3615625 7.57828125 62.3715625 7.23828125 61.3515625 C5.22319767 60.61832454 5.22319767 60.61832454 3.23828125 60.3515625 C3.51671875 61.24875 3.51671875 61.24875 3.80078125 62.1640625 C4.23828125 64.3515625 4.23828125 64.3515625 3.23828125 67.3515625 C4.37265625 67.6196875 5.50703125 67.8878125 6.67578125 68.1640625 C8.43921875 68.751875 8.43921875 68.751875 10.23828125 69.3515625 C10.56828125 70.3415625 10.89828125 71.3315625 11.23828125 72.3515625 C11.89828125 72.3515625 12.55828125 72.3515625 13.23828125 72.3515625 C13.23828125 73.0115625 13.23828125 73.6715625 13.23828125 74.3515625 C17.37921823 74.56126809 17.37921823 74.56126809 21.23828125 73.3515625 C21.89828125 73.6815625 22.55828125 74.0115625 23.23828125 74.3515625 C23.23828125 73.6915625 23.23828125 73.0315625 23.23828125 72.3515625 C23.89828125 72.3515625 24.55828125 72.3515625 25.23828125 72.3515625 C25.73328125 70.3715625 25.73328125 70.3715625 26.23828125 68.3515625 C24.91828125 68.6815625 23.59828125 69.0115625 22.23828125 69.3515625 C21.90828125 67.3715625 21.57828125 65.3915625 21.23828125 63.3515625 C19.25828125 63.0215625 17.27828125 62.6915625 15.23828125 62.3515625 C18.23828125 60.3515625 18.23828125 60.3515625 20.30078125 60.3515625 C22.23828125 61.3515625 22.23828125 61.3515625 23.48828125 64.4140625 C23.73578125 65.3834375 23.98328125 66.3528125 24.23828125 67.3515625 C27.20828125 67.3515625 30.17828125 67.3515625 33.23828125 67.3515625 C33.56828125 66.6915625 33.89828125 66.0315625 34.23828125 65.3515625 C32.75328125 64.8565625 32.75328125 64.8565625 31.23828125 64.3515625 C31.89828125 63.0315625 32.55828125 61.7115625 33.23828125 60.3515625 C31.25828125 59.8565625 31.25828125 59.8565625 29.23828125 59.3515625 C29.56828125 58.3615625 29.89828125 57.3715625 30.23828125 56.3515625 C29.24828125 56.3515625 28.25828125 56.3515625 27.23828125 56.3515625 C27.56828125 55.3615625 27.89828125 54.3715625 28.23828125 53.3515625 C30.5859375 53.54296875 30.5859375 53.54296875 33.23828125 54.3515625 C36.49701121 59.24409712 37.73209781 64.882871 36.80078125 70.6640625 C35.12018856 76.82949265 32.15137471 79.8593496 27.11328125 83.7890625 C22.37359397 86.29402881 17.31567493 85.41496944 12.23828125 84.3515625 C10.55581088 83.72585038 8.88324261 83.07011963 7.23828125 82.3515625 C6.82835937 83.11082031 6.4184375 83.87007813 5.99609375 84.65234375 C5.45726562 85.64621094 4.9184375 86.64007813 4.36328125 87.6640625 C3.82960937 88.65019531 3.2959375 89.63632813 2.74609375 90.65234375 C1.23828125 93.3515625 1.23828125 93.3515625 -0.76171875 96.3515625 C-4.52978404 95.09554074 -4.97418382 93.84143683 -6.94921875 90.4765625 C-7.47902344 89.59226562 -8.00882813 88.70796875 -8.5546875 87.796875 C-9.76171875 85.3515625 -9.76171875 85.3515625 -9.76171875 82.3515625 C-10.71046875 82.8671875 -11.65921875 83.3828125 -12.63671875 83.9140625 C-18.02421572 86.21519987 -23.50446922 85.45856367 -28.95703125 83.60546875 C-30.58624737 82.916185 -32.17945271 82.14269552 -33.76171875 81.3515625 C-33.76171875 80.6915625 -33.76171875 80.0315625 -33.76171875 79.3515625 C-35.24671875 78.8565625 -35.24671875 78.8565625 -36.76171875 78.3515625 C-40.11189084 73.80716503 -41.16096115 69.2765773 -40.38671875 63.7265625 C-39.13889542 58.36693579 -36.7352053 55.05511111 -32.76171875 51.3515625 C-32.10171875 50.6915625 -31.44171875 50.0315625 -30.76171875 49.3515625 C-31.06207031 48.82046875 -31.36242187 48.289375 -31.671875 47.7421875 C-32.05214844 47.03578125 -32.43242188 46.329375 -32.82421875 45.6015625 C-33.20707031 44.90546875 -33.58992188 44.209375 -33.984375 43.4921875 C-34.76171875 41.3515625 -34.76171875 41.3515625 -33.76171875 37.3515625 C-29.47171875 37.3515625 -25.18171875 37.3515625 -20.76171875 37.3515625 C-20.76171875 35.3715625 -20.76171875 33.3915625 -20.76171875 31.3515625 C-23.53303892 31.66015275 -26.30371861 31.9732658 -29.07421875 32.2890625 C-30.25274414 32.41958008 -30.25274414 32.41958008 -31.45507812 32.55273438 C-32.59106445 32.68325195 -32.59106445 32.68325195 -33.75 32.81640625 C-34.79474487 32.93423462 -34.79474487 32.93423462 -35.8605957 33.05444336 C-37.97820109 33.33153033 -37.97820109 33.33153033 -40.76171875 34.3515625 C-40.21189959 40.39957321 -38.85742301 45.65757356 -36.76171875 51.3515625 C-39.73171875 51.8465625 -39.73171875 51.8465625 -42.76171875 52.3515625 C-42.43171875 53.0115625 -42.10171875 53.6715625 -41.76171875 54.3515625 C-41.76171875 58.3515625 -41.76171875 58.3515625 -43.21875 61.046875 C-45.15942131 65.20335076 -45.31491374 68.69856499 -45.44921875 73.2265625 C-45.48337891 74.0103125 -45.51753906 74.7940625 -45.55273438 75.6015625 C-45.63452287 77.51774998 -45.69981335 79.43462965 -45.76171875 81.3515625 C-44.52421875 81.7846875 -43.28671875 82.2178125 -42.01171875 82.6640625 C-38.81960133 83.85195805 -36.41508929 85.18955688 -33.76171875 87.3515625 C-30.74681318 88.35653102 -28.71990183 88.45491553 -25.57421875 88.4140625 C-23.19203125 88.383125 -23.19203125 88.383125 -20.76171875 88.3515625 C-19.44171875 91.6515625 -18.12171875 94.9515625 -16.76171875 98.3515625 C-18.08171875 98.0215625 -19.40171875 97.6915625 -20.76171875 97.3515625 C-21.09171875 95.3715625 -21.42171875 93.3915625 -21.76171875 91.3515625 C-23.06109375 91.5784375 -24.36046875 91.8053125 -25.69921875 92.0390625 C-30.85730032 92.61761509 -35.13346924 91.69356828 -39.76171875 89.3515625 C-40.50228516 88.60712891 -40.50228516 88.60712891 -41.2578125 87.84765625 C-43.04444523 86.07030472 -44.57931663 85.47993044 -46.94921875 84.6640625 C-47.66464844 84.41269531 -48.38007812 84.16132812 -49.1171875 83.90234375 C-49.65988281 83.72058594 -50.20257813 83.53882812 -50.76171875 83.3515625 C-50.76171875 81.3715625 -50.76171875 79.3915625 -50.76171875 77.3515625 C-50.10171875 77.3515625 -49.44171875 77.3515625 -48.76171875 77.3515625 C-48.79652344 76.39894531 -48.83132812 75.44632812 -48.8671875 74.46484375 C-48.89425781 73.21058594 -48.92132813 71.95632812 -48.94921875 70.6640625 C-48.98402344 69.42269531 -49.01882812 68.18132812 -49.0546875 66.90234375 C-48.74110734 63.10175222 -47.79619948 61.48605118 -45.76171875 58.3515625 C-45.38235121 54.47302106 -45.38235121 54.47302106 -47.21875 52.24609375 C-49.50296129 47.96102902 -49.3307943 43.82679383 -49.44921875 39.0390625 C-49.48337891 38.10771484 -49.51753906 37.17636719 -49.55273438 36.21679688 C-49.63487816 33.92850578 -49.70413537 31.64058146 -49.76171875 29.3515625 C-47.33760685 28.13950655 -44.91274375 26.9300158 -42.48046875 25.734375 C-40.84952086 24.90484116 -39.23648079 24.03602776 -37.66796875 23.09375 C-32.19397846 19.88563274 -27.91061744 20.19234389 -21.76171875 21.3515625 C-21.66890625 20.083125 -21.66890625 20.083125 -21.57421875 18.7890625 C-19.8166808 11.35332502 -15.23222976 7.62327929 -9.26171875 3.2890625 C-8.70387695 2.87035889 -8.14603516 2.45165527 -7.57128906 2.02026367 C-4.74893931 0.07187544 -3.41574087 -0.80199856 0 0 Z " fill="#FAE4B5" transform="translate(64.76171875,5.6484375)"/>
<path d="M0 0 C0 1.98 0 3.96 0 6 C-6.435 6.495 -6.435 6.495 -13 7 C-12.16687441 11.99875355 -11.34505694 14.71772212 -9 19 C-9.928125 19.70125 -10.85625 20.4025 -11.8125 21.125 C-16.49248768 25.06546133 -18.52626302 29.71594702 -19.140625 35.8359375 C-18.87583706 39.91072976 -17.13135958 43.55819318 -15 47 C-14.34 47.33 -13.68 47.66 -13 48 C-13 48.66 -13 49.32 -13 50 C-4.58929854 52.83021703 2.46384394 53.84538535 11 51 C11.31453125 51.67546875 11.6290625 52.3509375 11.953125 53.046875 C15.06333886 59.67583569 15.06333886 59.67583569 20 65 C21.63542086 61.79029551 23.14031997 58.53192428 24.625 55.25 C25.07101563 54.26515625 25.51703125 53.2803125 25.9765625 52.265625 C26.31429687 51.51796875 26.65203125 50.7703125 27 50 C27.72445312 50.2165625 28.44890625 50.433125 29.1953125 50.65625 C36.48655935 52.94329608 36.48655935 52.94329608 44 53 C45.72206127 52.01140927 47.44340896 51.01918963 49.12109375 49.95703125 C52.31523076 48.33007996 55.45404014 48.24883929 59 48 C58.67 47.01 58.34 46.02 58 45 C57.87218214 42.32605036 57.95608129 39.67904143 58 37 C58.33 37 58.66 37 59 37 C59.99 41.95 59.99 41.95 61 47 C61.66 46.01 62.32 45.02 63 44 C63.495 46.97 63.495 46.97 64 50 C63.43152344 50.24234375 62.86304687 50.4846875 62.27734375 50.734375 C58.49365126 52.37671231 54.90270457 54.00403408 51.4375 56.25 C47.10776962 58.45422638 44.79625647 58.39968804 40 58 C38.515 57.505 38.515 57.505 37 57 C36.95875 58.010625 36.9175 59.02125 36.875 60.0625 C36.160934 64.90445438 33.56001366 67.79215974 30 71 C26.21012079 73.75693708 22.19986053 75.93740183 18 78 C17.33613281 77.51789063 16.67226563 77.03578125 15.98828125 76.5390625 C15.10527344 75.90742187 14.22226562 75.27578125 13.3125 74.625 C12.44238281 73.99851562 11.57226562 73.37203125 10.67578125 72.7265625 C8.15572482 71.10048229 5.80737867 70.02347365 3 69 C2.34 68.67 1.68 68.34 1 68 C1.33 67.34 1.66 66.68 2 66 C1.63292383 64.11280345 1.63292383 64.11280345 1 62 C0.65939189 60.33480481 0.32441604 58.66842534 0 57 C-1.485 57.495 -1.485 57.495 -3 58 C-9.50681841 58.49108063 -13.11808776 56.75726356 -18.5625 53.4375 C-20.98403207 52.00941699 -23.38388705 51.01423347 -26 50 C-25.91249004 47.29020876 -25.80555107 44.58349252 -25.6875 41.875 C-25.66494141 41.11445312 -25.64238281 40.35390625 -25.61914062 39.5703125 C-25.38466318 34.62497009 -24.38844566 31.41830431 -22 27 C-22 23.23312136 -22.23537317 22.08809695 -24 19 C-23.34 19 -22.68 19 -22 19 C-22 19.66 -22 20.32 -22 21 C-20.35 20.34 -18.7 19.68 -17 19 C-17.433125 17.89591797 -17.433125 17.89591797 -17.875 16.76953125 C-18.24625 15.79371094 -18.6175 14.81789063 -19 13.8125 C-19.556875 12.36810547 -19.556875 12.36810547 -20.125 10.89453125 C-20.97636772 8.07817642 -21.17072647 5.91835561 -21 3 C-13.92444501 -0.0017506 -7.62951555 -0.34855655 0 0 Z " fill="#F9DCA3" transform="translate(44,37)"/>
<path d="M0 0 C-0.33 1.32 -0.66 2.64 -1 4 C-3.475 3.505 -3.475 3.505 -6 3 C-6.99 4.485 -6.99 4.485 -8 6 C-8.99 5.34 -9.98 4.68 -11 4 C-11 5.32 -11 6.64 -11 8 C-12.32 8 -13.64 8 -15 8 C-15.33 9.32 -15.66 10.64 -16 12 C-16.66 12 -17.32 12 -18 12 C-17.34 13.32 -16.68 14.64 -16 16 C-16.99 16.33 -17.98 16.66 -19 17 C-19 17.66 -19 18.32 -19 19 C-17.02 19 -15.04 19 -13 19 C-13 19.66 -13 20.32 -13 21 C-14.98 21.99 -14.98 21.99 -17 23 C-15.68 23 -14.36 23 -13 23 C-12.34 22.34 -11.68 21.68 -11 21 C-10.67 22.32 -10.34 23.64 -10 25 C-10.639375 25.103125 -11.27875 25.20625 -11.9375 25.3125 C-12.618125 25.539375 -13.29875 25.76625 -14 26 C-14.33 26.99 -14.66 27.98 -15 29 C-12.36 27.68 -9.72 26.36 -7 25 C-6.34 26.32 -5.68 27.64 -5 29 C-5.66 29.33 -6.32 29.66 -7 30 C-7 29.01 -7 28.02 -7 27 C-10.24849977 28.72226496 -10.24849977 28.72226496 -11 32 C-9.02 31.505 -9.02 31.505 -7 31 C-6.67 31.66 -6.34 32.32 -6 33 C-5.34 33 -4.68 33 -4 33 C-3.34 31.68 -2.68 30.36 -2 29 C-1.67 30.32 -1.34 31.64 -1 33 C-0.34 33 0.32 33 1 33 C1.66 32.34 2.32 31.68 3 31 C3.99 31 4.98 31 6 31 C6.33 30.34 6.66 29.68 7 29 C7.99 29 8.98 29 10 29 C9.67 27.68 9.34 26.36 9 25 C9.99 24.34 10.98 23.68 12 23 C10.35 22.67 8.7 22.34 7 22 C7 21.34 7 20.68 7 20 C5.35 20 3.7 20 2 20 C1.505 17.525 1.505 17.525 1 15 C1.66 15 2.32 15 3 15 C3.33 15.99 3.66 16.98 4 18 C4.66 18.33 5.32 18.66 6 19 C5.505 16.525 5.505 16.525 5 14 C6.32 14.66 7.64 15.32 9 16 C9 16.99 9 17.98 9 19 C10.32 18.67 11.64 18.34 13 18 C12.34 17.01 11.68 16.02 11 15 C11.66 14.01 12.32 13.02 13 12 C12.01 11.67 11.02 11.34 10 11 C10 10.01 10 9.02 10 8 C8.68 8 7.36 8 6 8 C6 6.68 6 5.36 6 4 C4.02 4.99 4.02 4.99 2 6 C2 4.35 2 2.7 2 1 C9.96460409 2.50681699 9.96460409 2.50681699 12.625 6.375 C13.26308594 7.28378906 13.26308594 7.28378906 13.9140625 8.2109375 C16.70517929 12.80925221 16.47139898 17.79889788 16 23 C15.22465589 25.55142305 14.24073247 27.62192944 13 30 C15.97 30 18.94 30 22 30 C21.525625 29.154375 21.05125 28.30875 20.5625 27.4375 C17.49000054 20.67800118 17.94810978 15.87986721 20 9 C20.66 9 21.32 9 22 9 C22 8.01 22 7.02 22 6 C22.66 6 23.32 6 24 6 C24.33 5.01 24.66 4.02 25 3 C28.465 2.505 28.465 2.505 32 2 C32 2.66 32 3.32 32 4 C31.01 4.33 30.02 4.66 29 5 C28.67 5.99 28.34 6.98 28 8 C26.68 8 25.36 8 24 8 C24.598125 8.598125 25.19625 9.19625 25.8125 9.8125 C27.54166667 11.54166667 29.27083333 13.27083333 31 15 C29.68 15.33 28.36 15.66 27 16 C26.505 14.515 26.505 14.515 26 13 C23.98491642 12.26676204 23.98491642 12.26676204 22 12 C22.185625 12.598125 22.37125 13.19625 22.5625 13.8125 C23 16 23 16 22 19 C23.134375 19.268125 24.26875 19.53625 25.4375 19.8125 C26.613125 20.204375 27.78875 20.59625 29 21 C29.495 22.485 29.495 22.485 30 24 C30.66 24 31.32 24 32 24 C32 24.66 32 25.32 32 26 C36.14093698 26.20970559 36.14093698 26.20970559 40 25 C40.66 25.33 41.32 25.66 42 26 C42 25.34 42 24.68 42 24 C42.66 24 43.32 24 44 24 C44.33 22.68 44.66 21.36 45 20 C43.68 20.33 42.36 20.66 41 21 C40.505 18.03 40.505 18.03 40 15 C38.02 14.67 36.04 14.34 34 14 C37 12 37 12 39.0625 12 C41 13 41 13 42.25 16.0625 C42.4975 17.031875 42.745 18.00125 43 19 C45.97 19 48.94 19 52 19 C52.33 18.34 52.66 17.68 53 17 C51.515 16.505 51.515 16.505 50 16 C50.66 14.68 51.32 13.36 52 12 C50.68 11.67 49.36 11.34 48 11 C48.33 10.01 48.66 9.02 49 8 C48.01 8 47.02 8 46 8 C46.33 7.01 46.66 6.02 47 5 C49.34765625 5.19140625 49.34765625 5.19140625 52 6 C55.25872996 10.89253462 56.49381656 16.5313085 55.5625 22.3125 C53.88190731 28.47793015 50.91309346 31.5077871 45.875 35.4375 C41.13531272 37.94246631 36.07739368 37.06340694 31 36 C29.31752963 35.37428788 27.64496136 34.71855713 26 34 C25.38511719 35.13888672 25.38511719 35.13888672 24.7578125 36.30078125 C24.21898437 37.29464844 23.68015625 38.28851563 23.125 39.3125 C22.59132812 40.29863281 22.05765625 41.28476563 21.5078125 42.30078125 C20 45 20 45 18 48 C14.23193471 46.74397824 13.78753493 45.48987433 11.8125 42.125 C11.01779297 40.79855469 11.01779297 40.79855469 10.20703125 39.4453125 C9 37 9 37 9 34 C7.576875 34.7734375 7.576875 34.7734375 6.125 35.5625 C0.73750303 37.86363737 -4.74275047 37.10700117 -10.1953125 35.25390625 C-11.82452862 34.5646225 -13.41773396 33.79113302 -15 33 C-15 32.34 -15 31.68 -15 31 C-15.99 30.67 -16.98 30.34 -18 30 C-21.35017209 25.45560253 -22.3992424 20.9250148 -21.625 15.375 C-20.3592864 10.0590029 -18.19766337 6.48974389 -14 3 C-9.39040653 0.17779992 -5.272347 -1.757449 0 0 Z " fill="#FDF4EA" transform="translate(46,54)"/>
<path d="M0 0 C6.55762747 3.27881374 14.25475305 7.48652705 18 14 C18.75 17.8125 18.75 17.8125 19 21 C19.495 20.835 19.99 20.67 20.5 20.5 C25.2294897 19.55410206 29.00534304 18.90310743 33.30859375 21.26953125 C34.80675386 22.30788506 36.28195356 23.38053676 37.7265625 24.4921875 C40.37420241 26.24818235 42.96466916 27.10418603 46 28 C45.93948851 30.68973586 45.85228103 33.37428778 45.75 36.0625 C45.73582031 36.81466797 45.72164062 37.56683594 45.70703125 38.34179688 C45.46169058 44.00916632 43.94436403 47.18906573 41 52 C41.61843723 54.58619207 42.12118902 56.12118902 44 58 C44.08631874 59.34267413 44.10706473 60.68974322 44.09765625 62.03515625 C44.09443359 62.84404297 44.09121094 63.65292969 44.08789062 64.48632812 C44.07532227 65.7615332 44.07532227 65.7615332 44.0625 67.0625 C44.05798828 67.91650391 44.05347656 68.77050781 44.04882812 69.65039062 C44.03700373 71.76695663 44.01906769 73.88348685 44 76 C43.01 75.505 43.01 75.505 42 75 C41.375 72.4375 41.375 72.4375 41 70 C41 71.98 41 73.96 41 76 C37.535 76.495 37.535 76.495 34 77 C34.27714844 76.50371094 34.55429688 76.00742188 34.83984375 75.49609375 C37.49673753 70.51323603 40.06802932 65.6502268 38.3828125 59.890625 C37.85447734 58.51192183 37.29280814 57.14530973 36.69140625 55.796875 C36 54 36 54 36 51 C35.01 50.67 34.02 50.34 33 50 C33.42152344 49.21496094 33.84304687 48.42992187 34.27734375 47.62109375 C38.44762887 39.6891284 38.44762887 39.6891284 40 31 C32.80981251 29.08261667 26.44482026 28.82885471 19 29 C18.01 25.37 17.02 21.74 16 18 C15.34 18 14.68 18 14 18 C13.67 19.32 13.34 20.64 13 22 C11.35 22.33 9.7 22.66 8 23 C8 22.34 8 21.68 8 21 C7.34 21 6.68 21 6 21 C6 21.99 6 22.98 6 24 C9.3 23.67 12.6 23.34 16 23 C16 24.65 16 26.3 16 28 C16.33 28.99 16.66 29.98 17 31 C16.34 31.66 15.68 32.32 15 33 C15.33 33.99 15.66 34.98 16 36 C15.01 36.495 15.01 36.495 14 37 C13.67 37.99 13.34 38.98 13 40 C11.125 39.75 11.125 39.75 9 39 C7.75 36.9375 7.75 36.9375 7 35 C6.34 35 5.68 35 5 35 C5.66 33.02 6.32 31.04 7 29 C4.28395285 26.12579877 4.28395285 26.12579877 1 24 C1.185625 23.401875 1.37125 22.80375 1.5625 22.1875 C2.22093687 19.83591238 2.22093687 19.83591238 1 17 C1.33 16.01 1.66 15.02 2 14 C2.5775 14.350625 3.155 14.70125 3.75 15.0625 C6.35801776 16.14917407 7.39417629 15.93065133 10 15 C10 15.99 10 16.98 10 18 C10.66 18 11.32 18 12 18 C11.33717717 15.98406834 11.33717717 15.98406834 10 14 C7.80360834 13.07931275 7.80360834 13.07931275 5.25 12.75 C4.35539062 12.59660156 3.46078125 12.44320313 2.5390625 12.28515625 C-0.13466591 11.91350358 -0.13466591 11.91350358 -3.375 12.1875 C-6 12 -6 12 -8.375 9.5 C-8.91125 8.675 -9.4475 7.85 -10 7 C-6.7 4.69 -3.4 2.38 0 0 Z " fill="#F8DDA5" transform="translate(62,9)"/>
<path d="M0 0 C2.65462323 1.59092403 4.89177794 3.32130456 7.2421875 5.34375 C7.89832031 5.83875 8.55445312 6.33375 9.23046875 6.84375 C14.62048995 11.10058576 16.65852316 14.72303358 18.2421875 21.34375 C20.15837891 20.95896484 20.15837891 20.95896484 22.11328125 20.56640625 C28.06310674 19.90531453 32.13715205 22.05917353 37.3046875 24.78125 C38.17029297 25.21501953 39.03589844 25.64878906 39.92773438 26.09570312 C42.04324703 27.15930341 44.1464981 28.24174775 46.2421875 29.34375 C46.1545575 32.19927944 46.04759743 35.05193989 45.9296875 37.90625 C45.90712891 38.70611328 45.88457031 39.50597656 45.86132812 40.33007812 C45.61884615 45.73081296 44.49734323 49.45254092 42.2421875 54.34375 C41.96305269 58.31831338 41.96305269 58.31831338 43.69921875 61.50390625 C45.67808818 65.8606764 45.79632257 70.0525107 45.9296875 74.78125 C45.96384766 75.60818359 45.99800781 76.43511719 46.03320312 77.28710938 C46.11487371 79.30553944 46.18022474 81.32461884 46.2421875 83.34375 C43.25815707 84.89748203 40.25305516 86.40527671 37.2421875 87.90625 C35.98341797 88.56270508 35.98341797 88.56270508 34.69921875 89.23242188 C28.96757804 92.0538109 25.50045184 92.78517894 19.2421875 91.34375 C19.04625 91.91222656 18.8503125 92.48070313 18.6484375 93.06640625 C14.78325509 103.04590739 6.67610883 108.72757909 -2.7578125 113.34375 C-5.76763602 111.02284164 -8.76635104 108.68827752 -11.7578125 106.34375 C-12.39589844 105.84617187 -13.03398438 105.34859375 -13.69140625 104.8359375 C-15.08594056 103.71897237 -16.42806645 102.53711184 -17.7578125 101.34375 C-17.7578125 100.68375 -17.7578125 100.02375 -17.7578125 99.34375 C-13.86774477 100.73155795 -10.79222542 102.5589727 -7.4453125 104.96875 C-6.12080078 105.91621094 -6.12080078 105.91621094 -4.76953125 106.8828125 C-4.10566406 107.36492187 -3.44179688 107.84703125 -2.7578125 108.34375 C0.48023856 106.82614834 3.36377295 105.000332 6.3046875 102.96875 C7.59052734 102.09089844 7.59052734 102.09089844 8.90234375 101.1953125 C13.5295195 97.53374104 14.82190356 94.02488575 16.2421875 88.34375 C16.93183594 88.40175781 17.62148437 88.45976563 18.33203125 88.51953125 C25.80510888 88.87832099 30.06212987 87.3822035 36.2421875 83.34375 C38.96401561 81.81047065 40.04118605 81.34375 43.2421875 81.34375 C42.92121094 80.50070313 42.60023437 79.65765625 42.26953125 78.7890625 C40.85805387 74.05551478 40.84733851 69.4982804 40.68359375 64.5859375 C40.21471671 61.14197339 39.39246185 59.95479743 37.2421875 57.34375 C37.93623169 54.81995295 38.93025622 52.85471205 40.2890625 50.62890625 C41.59219883 47.5045835 41.63803428 44.65331839 41.8046875 41.28125 C42.146654 34.6303505 42.146654 34.6303505 43.2421875 31.34375 C42.2521875 31.116875 41.2621875 30.89 40.2421875 30.65625 C37.17069877 29.8163419 35.10421233 28.60550528 32.5546875 26.71875 C27.46278579 23.29401927 22.15481097 23.90030324 16.2421875 24.34375 C16.09523437 23.75207031 15.94828125 23.16039063 15.796875 22.55078125 C14.17289421 16.82951559 12.20777099 13.71285986 7.2421875 10.34375 C5.7810534 9.24329224 4.32277097 8.13903919 2.8671875 7.03125 C1.66004861 6.13380779 0.45214004 5.23739515 -0.7578125 4.34375 C-4.06614166 5.93143515 -7.19296141 7.73729035 -10.3203125 9.65625 C-11.74537109 10.51669922 -11.74537109 10.51669922 -13.19921875 11.39453125 C-15.94915905 13.48952393 -17.19637983 15.29006205 -18.7578125 18.34375 C-19.1496875 19.106875 -19.5415625 19.87 -19.9453125 20.65625 C-20.2134375 21.213125 -20.4815625 21.77 -20.7578125 22.34375 C-21.53200328 19.6101875 -21.96176682 17.9198684 -21 15.203125 C-17.74266596 10.17752391 -14.01205537 6.62799648 -9.1953125 3.15625 C-8.64149902 2.74536133 -8.08768555 2.33447266 -7.51708984 1.91113281 C-4.70485817 0.00501811 -3.37517915 -0.80315878 0 0 Z " fill="#F6ECDF" transform="translate(64.7578125,5.65625)"/>
<path d="M0 0 C7.03482474 -0.23668569 13.1834265 0.2120463 20 2 C21.31102718 6.39436887 20.64012047 8.88222968 18.875 13.0625 C18.25238281 14.59583984 18.25238281 14.59583984 17.6171875 16.16015625 C15.81974666 19.31653183 13.89985435 20.86551705 11 23 C10.67 23.66 10.34 24.32 10 25 C10.99 25 11.98 25 13 25 C13 25.99 13 26.98 13 28 C13.99 28.33 14.98 28.66 16 29 C15.67 30.32 15.34 31.64 15 33 C15.66 33.33 16.32 33.66 17 34 C16.67 34.99 16.34 35.98 16 37 C14.35 36.67 12.7 36.34 11 36 C10.67 36.66 10.34 37.32 10 38 C10 37.34 10 36.68 10 36 C9.01 36 8.02 36 7 36 C6.34 34.02 5.68 32.04 5 30 C3.35 30 1.7 30 0 30 C0.61875 30.226875 1.2375 30.45375 1.875 30.6875 C4.61410209 32.37929835 5.05024472 33.99244161 6 37 C6.99 37 7.98 37 9 37 C8.67 38.32 8.34 39.64 8 41 C7.34 41 6.68 41 6 41 C6 41.66 6 42.32 6 43 C-0.625 44.125 -0.625 44.125 -4 43 C-4 42.34 -4 41.68 -4 41 C-4.66 41 -5.32 41 -6 41 C-6.4125 40.54625 -6.825 40.0925 -7.25 39.625 C-9.58139465 37.46013354 -11.97828036 36.87294123 -15 36 C-14.67 33.69 -14.34 31.38 -14 29 C-11.5625 29.375 -11.5625 29.375 -9 30 C-8.67 30.66 -8.34 31.32 -8 32 C-7.34 31.67 -6.68 31.34 -6 31 C-6 30.34 -6 29.68 -6 29 C-2.04 27.515 -2.04 27.515 2 26 C2 24.02 2 22.04 2 20 C3.32 19.67 4.64 19.34 6 19 C6 19.66 6 20.32 6 21 C6.99 20.67 7.98 20.34 9 20 C9.61327489 18.17525683 9.61327489 18.17525683 10 16 C11.25293179 12.96075983 12.635939 9.9921338 14 7 C7.07 6.505 7.07 6.505 0 6 C-1 3 -1 3 0 0 Z " fill="#F0CEBA" transform="translate(82,37)"/>
<path d="M0 0 C-0.33 1.32 -0.66 2.64 -1 4 C-3.475 3.505 -3.475 3.505 -6 3 C-6.99 4.485 -6.99 4.485 -8 6 C-8.99 5.34 -9.98 4.68 -11 4 C-11 5.32 -11 6.64 -11 8 C-12.32 8 -13.64 8 -15 8 C-15.33 9.32 -15.66 10.64 -16 12 C-16.66 12 -17.32 12 -18 12 C-17.34 13.32 -16.68 14.64 -16 16 C-16.99 16.33 -17.98 16.66 -19 17 C-19 17.66 -19 18.32 -19 19 C-17.02 19 -15.04 19 -13 19 C-13 19.66 -13 20.32 -13 21 C-14.98 21.99 -14.98 21.99 -17 23 C-15.68 23 -14.36 23 -13 23 C-12.34 22.34 -11.68 21.68 -11 21 C-10.67 22.32 -10.34 23.64 -10 25 C-10.639375 25.103125 -11.27875 25.20625 -11.9375 25.3125 C-12.618125 25.539375 -13.29875 25.76625 -14 26 C-14.33 26.99 -14.66 27.98 -15 29 C-12.36 27.68 -9.72 26.36 -7 25 C-6.34 26.32 -5.68 27.64 -5 29 C-5.66 29.33 -6.32 29.66 -7 30 C-7 29.01 -7 28.02 -7 27 C-10.24849977 28.72226496 -10.24849977 28.72226496 -11 32 C-9.02 31.505 -9.02 31.505 -7 31 C-6.67 31.66 -6.34 32.32 -6 33 C-5.34 33 -4.68 33 -4 33 C-3.34 31.68 -2.68 30.36 -2 29 C-1.67 30.32 -1.34 31.64 -1 33 C-0.34 33 0.32 33 1 33 C1.66 32.34 2.32 31.68 3 31 C3.99 31 4.98 31 6 31 C6.33 30.34 6.66 29.68 7 29 C7.99 29 8.98 29 10 29 C9.67 27.68 9.34 26.36 9 25 C9.99 24.34 10.98 23.68 12 23 C10.35 22.67 8.7 22.34 7 22 C7 21.34 7 20.68 7 20 C5.35 20 3.7 20 2 20 C1.505 17.525 1.505 17.525 1 15 C1.66 15 2.32 15 3 15 C3.33 15.99 3.66 16.98 4 18 C4.66 18.33 5.32 18.66 6 19 C5.505 16.525 5.505 16.525 5 14 C6.32 14.66 7.64 15.32 9 16 C9 16.99 9 17.98 9 19 C10.32 18.67 11.64 18.34 13 18 C12.34 17.01 11.68 16.02 11 15 C11.66 14.01 12.32 13.02 13 12 C12.01 11.67 11.02 11.34 10 11 C10 10.01 10 9.02 10 8 C8.68 8 7.36 8 6 8 C6 6.68 6 5.36 6 4 C4.02 4.99 4.02 4.99 2 6 C2 4.35 2 2.7 2 1 C9.96460409 2.50681699 9.96460409 2.50681699 12.625 6.375 C13.26308594 7.28378906 13.26308594 7.28378906 13.9140625 8.2109375 C16.70517929 12.80925221 16.47139898 17.79889788 16 23 C15.22465589 25.55142305 14.24073247 27.62192944 13 30 C16.3 30.33 19.6 30.66 23 31 C23.33 31.99 23.66 32.98 24 34 C23.505 34.99 23.505 34.99 23 36 C18.38 36 13.76 36 9 36 C9 35.34 9 34.68 9 34 C7.576875 34.7734375 7.576875 34.7734375 6.125 35.5625 C0.73750303 37.86363737 -4.74275047 37.10700117 -10.1953125 35.25390625 C-11.82452862 34.5646225 -13.41773396 33.79113302 -15 33 C-15 32.34 -15 31.68 -15 31 C-15.99 30.67 -16.98 30.34 -18 30 C-21.35017209 25.45560253 -22.3992424 20.9250148 -21.625 15.375 C-20.3592864 10.0590029 -18.19766337 6.48974389 -14 3 C-9.39040653 0.17779992 -5.272347 -1.757449 0 0 Z " fill="#FDF5E8" transform="translate(46,54)"/>
<path d="M0 0 C0 1.98 0 3.96 0 6 C-6.435 6.495 -6.435 6.495 -13 7 C-12.16687441 11.99875355 -11.34505694 14.71772212 -9 19 C-9.928125 19.70125 -10.85625 20.4025 -11.8125 21.125 C-16.49248768 25.06546133 -18.52626302 29.71594702 -19.140625 35.8359375 C-18.87583706 39.91072976 -17.13135958 43.55819318 -15 47 C-14.34 47.33 -13.68 47.66 -13 48 C-13 48.99 -13 49.98 -13 51 C-18.11440918 52.1058182 -21.1628287 52.09174975 -26 50 C-25.91249004 47.29020876 -25.80555107 44.58349252 -25.6875 41.875 C-25.66494141 41.11445312 -25.64238281 40.35390625 -25.61914062 39.5703125 C-25.38466318 34.62497009 -24.38844566 31.41830431 -22 27 C-22 23.23312136 -22.23537317 22.08809695 -24 19 C-23.34 19 -22.68 19 -22 19 C-22 19.66 -22 20.32 -22 21 C-20.35 20.34 -18.7 19.68 -17 19 C-17.433125 17.89591797 -17.433125 17.89591797 -17.875 16.76953125 C-18.24625 15.79371094 -18.6175 14.81789063 -19 13.8125 C-19.556875 12.36810547 -19.556875 12.36810547 -20.125 10.89453125 C-20.97636772 8.07817642 -21.17072647 5.91835561 -21 3 C-13.92444501 -0.0017506 -7.62951555 -0.34855655 0 0 Z " fill="#F6D7A5" transform="translate(44,37)"/>
<path d="M0 0 C0.66 0 1.32 0 2 0 C4.9445679 4.99296295 5.63495936 9.33557626 6 15 C6.84304687 15.06058594 7.68609375 15.12117188 8.5546875 15.18359375 C10.19824219 15.30927734 10.19824219 15.30927734 11.875 15.4375 C13.51082031 15.55931641 13.51082031 15.55931641 15.1796875 15.68359375 C18 16 18 16 20 17 C19.57284915 19.99005594 19.02444026 21.95991797 17.4375 24.5625 C15.66134332 27.10260929 15.66134332 27.10260929 16 31 C14.68 31 13.36 31 12 31 C12 30.34 12 29.68 12 29 C11.01 29.33 10.02 29.66 9 30 C8.67 31.65 8.34 33.3 8 35 C8.66 35.33 9.32 35.66 10 36 C7.03 36.495 7.03 36.495 4 37 C4 36.34 4 35.68 4 35 C4.66 35 5.32 35 6 35 C5.42547254 31.06924356 5.42547254 31.06924356 3 28 C3.33 27.67 3.66 27.34 4 27 C3.34 26.67 2.68 26.34 2 26 C2 25.34 2 24.68 2 24 C1.4740625 24.6496875 1.4740625 24.6496875 0.9375 25.3125 C-4.30822413 29.8813565 -9.34662948 30.3501774 -16 30 C-15.34 28.35 -14.68 26.7 -14 25 C-12.68 25.66 -11.36 26.32 -10 27 C-9.67 26.34 -9.34 25.68 -9 25 C-7.68 25.33 -6.36 25.66 -5 26 C-5 24.68 -5 23.36 -5 22 C-3.68 22 -2.36 22 -1 22 C-0.67 20.68 -0.34 19.36 0 18 C0.66 18 1.32 18 2 18 C1.34 16.68 0.68 15.36 0 14 C0.99 13.67 1.98 13.34 3 13 C2.649375 12.236875 2.29875 11.47375 1.9375 10.6875 C1 8 1 8 2 5 C-0.64 5.99 -3.28 6.98 -6 8 C-6 7.34 -6 6.68 -6 6 C-6.66 6 -7.32 6 -8 6 C-8 5.01 -8 4.02 -8 3 C-7.01 2.67 -6.02 2.34 -5 2 C-5 2.66 -5 3.32 -5 4 C-3.01508358 3.73323796 -3.01508358 3.73323796 -1 3 C-0.67 2.01 -0.34 1.02 0 0 Z " fill="#FEF4E9" transform="translate(76,27)"/>
<path d="M0 0 C1.65 0 3.3 0 5 0 C5 0.66 5 1.32 5 2 C5.66 2 6.32 2 7 2 C7 2.66 7 3.32 7 4 C8.65 4 10.3 4 12 4 C11.67 5.98 11.34 7.96 11 10 C10.01 9.67 9.02 9.34 8 9 C8 8.01 8 7.02 8 6 C7.34 6 6.68 6 6 6 C6.33 7.65 6.66 9.3 7 11 C8.0828125 10.938125 8.0828125 10.938125 9.1875 10.875 C12.20729369 11.00921305 14.26935729 11.75170619 17 13 C17 13.99 17 14.98 17 16 C16.34 16.33 15.68 16.66 15 17 C15 17.99 15 18.98 15 20 C14.01 20 13.02 20 12 20 C11.67 20.99 11.34 21.98 11 23 C8.17884816 24.07009208 6.09455459 24 3 24 C2.29875 24.20625 1.5975 24.4125 0.875 24.625 C0.25625 24.74875 -0.3625 24.8725 -1 25 C-1.66 24.34 -2.32 23.68 -3 23 C-3.99 23 -4.98 23 -6 23 C-5.6875 21.0625 -5.6875 21.0625 -5 19 C-4.01 18.67 -3.02 18.34 -2 18 C-2.33 17.67 -2.66 17.34 -3 17 C-3.598125 17.495 -4.19625 17.99 -4.8125 18.5 C-7 20 -7 20 -10 20 C-9.67 18.68 -9.34 17.36 -9 16 C-7.68 16 -6.36 16 -5 16 C-5 14.35 -5 12.7 -5 11 C-4.34 11 -3.68 11 -3 11 C-2.5875 11.495 -2.175 11.99 -1.75 12.5 C0.76822501 14.65847858 2.79375585 14.21374961 6 14 C6.33 13.34 6.66 12.68 7 12 C5.576875 12.2784375 5.576875 12.2784375 4.125 12.5625 C1 13 1 13 -1 12 C-1.6875 10.0625 -1.6875 10.0625 -2 8 C-1.67 7.34 -1.34 6.68 -1 6 C-1.66 6 -2.32 6 -3 6 C-3 7.32 -3 8.64 -3 10 C-3.99 10 -4.98 10 -6 10 C-6.33 8.02 -6.66 6.04 -7 4 C-5.35 4 -3.7 4 -2 4 C-2 3.34 -2 2.68 -2 2 C-1.34 2 -0.68 2 0 2 C0 1.34 0 0.68 0 0 Z " fill="#F1D1C3" transform="translate(41,63)"/>
<path d="M0 0 C0.33 0.99 0.66 1.98 1 3 C-0.14275391 2.89558594 -0.14275391 2.89558594 -1.30859375 2.7890625 C-8.41321079 2.41653576 -12.46940475 3.10901176 -18.0625 7.58984375 C-20.07408845 9.05392325 -21.57145815 9.57175266 -24 10 C-23.91249004 12.70979124 -23.80555107 15.41650748 -23.6875 18.125 C-23.66494141 18.88554688 -23.64238281 19.64609375 -23.61914062 20.4296875 C-23.38466318 25.37502991 -22.38844566 28.58169569 -20 33 C-20 37 -20 37 -21.45703125 39.6953125 C-23.39770256 43.85178826 -23.55319499 47.34700249 -23.6875 51.875 C-23.72166016 52.65875 -23.75582031 53.4425 -23.79101562 54.25 C-23.87280412 56.16618748 -23.9380946 58.08306715 -24 60 C-22.7625 60.433125 -21.525 60.86625 -20.25 61.3125 C-17.05788258 62.50039555 -14.65337054 63.83799438 -12 66 C-8.98509443 67.00496852 -6.95818308 67.10335303 -3.8125 67.0625 C-1.4303125 67.0315625 -1.4303125 67.0315625 1 67 C2.32 70.3 3.64 73.6 5 77 C3.68 76.67 2.36 76.34 1 76 C0.67 74.02 0.34 72.04 0 70 C-1.299375 70.226875 -2.59875 70.45375 -3.9375 70.6875 C-9.09558157 71.26605259 -13.37175049 70.34200578 -18 68 C-18.74056641 67.25556641 -18.74056641 67.25556641 -19.49609375 66.49609375 C-21.28272648 64.71874222 -22.81759788 64.12836794 -25.1875 63.3125 C-25.90292969 63.06113281 -26.61835938 62.80976562 -27.35546875 62.55078125 C-27.89816406 62.36902344 -28.44085938 62.18726563 -29 62 C-29 60.02 -29 58.04 -29 56 C-28.34 56 -27.68 56 -27 56 C-27.03480469 55.04738281 -27.06960937 54.09476563 -27.10546875 53.11328125 C-27.13253906 51.85902344 -27.15960938 50.60476562 -27.1875 49.3125 C-27.22230469 48.07113281 -27.25710937 46.82976562 -27.29296875 45.55078125 C-26.97938859 41.75018972 -26.03448073 40.13448868 -24 37 C-23.62063246 33.12145856 -23.62063246 33.12145856 -25.45703125 30.89453125 C-27.74124254 26.60946652 -27.56907555 22.47523133 -27.6875 17.6875 C-27.72166016 16.75615234 -27.75582031 15.82480469 -27.79101562 14.86523438 C-27.87315941 12.57694328 -27.94241662 10.28901896 -28 8 C-25.5758881 6.78794405 -23.151025 5.5784533 -20.71875 4.3828125 C-19.08780211 3.55327866 -17.47476204 2.68446526 -15.90625 1.7421875 C-10.43225971 -1.46592976 -6.14889869 -1.15921861 0 0 Z " fill="#F6EDDF" transform="translate(43,27)"/>
<path d="M0 0 C0.66 0 1.32 0 2 0 C2 0.66 2 1.32 2 2 C2.99 2.33 3.98 2.66 5 3 C5 3.66 5 4.32 5 5 C5.33 5.33 5.66 5.66 6 6 C6.04063832 7.66617115 6.042721 9.33388095 6 11 C5.34 11 4.68 11 4 11 C4.33 11.99 4.66 12.98 5 14 C1.75 15.1875 1.75 15.1875 -2 16 C-4.4375 14.75 -4.4375 14.75 -6 13 C-6 12.34 -6 11.68 -6 11 C-4.68 11 -3.36 11 -2 11 C-1.67 9.68 -1.34 8.36 -1 7 C-0.01 7 0.98 7 2 7 C2 6.34 2 5.68 2 5 C-0.35171131 5.59861742 -2.6859378 6.26924352 -5 7 C-5.33 7.66 -5.66 8.32 -6 9 C-6.66 9 -7.32 9 -8 9 C-8 9.99 -8 10.98 -8 12 C-8.66 12 -9.32 12 -10 12 C-11.11996449 19.34049015 -11.14253931 24.23145379 -8 31 C-7.67 31.99 -7.34 32.98 -7 34 C-10.63 34 -14.26 34 -18 34 C-17.505 32.88625 -17.01 31.7725 -16.5 30.625 C-14.50092027 25.22078924 -13.59738898 19.37384813 -15.8671875 13.9140625 C-16.839371 12.23225601 -17.91487454 10.6112469 -19 9 C-19.33 8.01 -19.66 7.02 -20 6 C-20.66 5.67 -21.32 5.34 -22 5 C-21.03578125 5.02320313 -20.0715625 5.04640625 -19.078125 5.0703125 C-17.81484375 5.08835937 -16.5515625 5.10640625 -15.25 5.125 C-13.37054688 5.15980469 -13.37054688 5.15980469 -11.453125 5.1953125 C-8.18835242 5.01065342 -6.75059381 4.5735379 -4 3 C-3.01 3 -2.02 3 -1 3 C-0.67 2.01 -0.34 1.02 0 0 Z " fill="#EECAA9" transform="translate(76,51)"/>
<path d="M0 0 C2.475 1.485 2.475 1.485 5 3 C4.51744703 7.94982367 3.12337388 10.75007496 0.125 14.6875 C-0.57367188 15.61949219 -1.27234375 16.55148438 -1.9921875 17.51171875 C-3.58145637 19.48129905 -5.16016531 21.27009254 -7 23 C-13.77969598 20.02644913 -17.75380722 14.22355771 -20.4375 7.5 C-20.975256 6.00598332 -21.5025151 4.50790455 -22 3 C-20.02 2.34 -18.04 1.68 -16 1 C-15.68546875 1.67546875 -15.3709375 2.3509375 -15.046875 3.046875 C-11.93666114 9.67583569 -11.93666114 9.67583569 -7 15 C-5.36457914 11.79029551 -3.85968003 8.53192428 -2.375 5.25 C-1.92898437 4.26515625 -1.48296875 3.2803125 -1.0234375 2.265625 C-0.68570313 1.51796875 -0.34796875 0.7703125 0 0 Z " fill="#EFBD20" transform="translate(71,87)"/>
<path d="M0 0 C2.625 0.375 2.625 0.375 5 1 C5.66 2.98 6.32 4.96 7 7 C7.99 7 8.98 7 10 7 C10 7.66 10 8.32 10 9 C11.65 9 13.3 9 15 9 C15 10.32 15 11.64 15 13 C14.34 13 13.68 13 13 13 C13 14.32 13 15.64 13 17 C12.01 17 11.02 17 10 17 C10 18.32 10 19.64 10 21 C9.236875 20.979375 8.47375 20.95875 7.6875 20.9375 C4.89814214 20.87057159 4.89814214 20.87057159 2 22 C2 21.34 2 20.68 2 20 C0.9171875 20.556875 0.9171875 20.556875 -0.1875 21.125 C-3.60988311 22.18974141 -4.88228073 21.60339848 -8 20 C-8 19.01 -8 18.02 -8 17 C-9.32 17 -10.64 17 -12 17 C-12.82638376 14.10765685 -13 12.11257569 -13 9 C-11.02 9 -9.04 9 -7 9 C-6.67 9.99 -6.34 10.98 -6 12 C-5.34 12 -4.68 12 -4 12 C-4 12.66 -4 13.32 -4 14 C0.14093698 14.20970559 0.14093698 14.20970559 4 13 C4.66 13.33 5.32 13.66 6 14 C6 13.34 6 12.68 6 12 C6.66 12 7.32 12 8 12 C8.33 10.68 8.66 9.36 9 8 C7.68 8.33 6.36 8.66 5 9 C4.67 7.02 4.34 5.04 4 3 C1.03 2.505 1.03 2.505 -2 2 C-1.34 1.34 -0.68 0.68 0 0 Z " fill="#EAC8B4" transform="translate(82,66)"/>
<path d="M0 0 C0 1.98 0 3.96 0 6 C-6.435 6.495 -6.435 6.495 -13 7 C-12.16687441 11.99875355 -11.34505694 14.71772212 -9 19 C-10.65 19.99 -12.3 20.98 -14 22 C-18.0436819 15.91904324 -21.44545998 10.57281958 -21 3 C-13.92444501 -0.0017506 -7.62951555 -0.34855655 0 0 Z " fill="#F1BC1F" transform="translate(44,37)"/>
<path d="M0 0 C7.03482474 -0.23668569 13.1834265 0.2120463 20 2 C21.3522503 6.46077691 20.57622895 8.96303361 18.75 13.1875 C18.31171875 14.23292969 17.8734375 15.27835938 17.421875 16.35546875 C16 19 16 19 13 21 C11.68 19.68 10.36 18.36 9 17 C10.65 13.7 12.3 10.4 14 7 C7.07 6.505 7.07 6.505 0 6 C-1 3 -1 3 0 0 Z " fill="#EDBB28" transform="translate(82,37)"/>
<path d="M0 0 C0 0.99 0 1.98 0 3 C-0.99 3.495 -0.99 3.495 -2 4 C0.2236068 5.2981424 0.2236068 5.2981424 4 5 C4.33 6.98 4.66 8.96 5 11 C4.34 11 3.68 11 3 11 C3 11.99 3 12.98 3 14 C3.66 14 4.32 14 5 14 C5 14.66 5 15.32 5 16 C4.360625 16.12375 3.72125 16.2475 3.0625 16.375 C2.381875 16.58125 1.70125 16.7875 1 17 C0.67 17.66 0.34 18.32 0 19 C-2 17.625 -2 17.625 -4 16 C-4 15.34 -4 14.68 -4 14 C-7.49234244 13.90021879 -10.59437148 14.22157062 -14 15 C-14.33 12.36 -14.66 9.72 -15 7 C-12.525 7.495 -12.525 7.495 -10 8 C-10 8.66 -10 9.32 -10 10 C-9.34 10 -8.68 10 -8 10 C-7.34 7.69 -6.68 5.38 -6 3 C-5.34 3 -4.68 3 -4 3 C-4 2.34 -4 1.68 -4 1 C-2 0 -2 0 0 0 Z " fill="#EFC1A5" transform="translate(62,30)"/>
<path d="M0 0 C0.598125 0.33 1.19625 0.66 1.8125 1 C4.05386471 2.20787988 4.05386471 2.20787988 7 2 C6.67 3.65 6.34 5.3 6 7 C5.34 7 4.68 7 4 7 C4 7.99 4 8.98 4 10 C7.3 9.67 10.6 9.34 14 9 C14 10.65 14 12.3 14 14 C14.33 14.99 14.66 15.98 15 17 C14.34 17.66 13.68 18.32 13 19 C13.33 19.99 13.66 20.98 14 22 C13.34 22.33 12.68 22.66 12 23 C11.67 23.99 11.34 24.98 11 26 C9.125 25.75 9.125 25.75 7 25 C5.75 22.9375 5.75 22.9375 5 21 C4.34 21 3.68 21 3 21 C3.66 19.02 4.32 17.04 5 15 C2.28395285 12.12579877 2.28395285 12.12579877 -1 10 C-0.7215625 9.1028125 -0.7215625 9.1028125 -0.4375 8.1875 C0.22093687 5.83591238 0.22093687 5.83591238 -1 3 C-0.67 2.01 -0.34 1.02 0 0 Z " fill="#E8C0AD" transform="translate(64,23)"/>
<path d="M0 0 C3.29226085 1.64613043 6.06636677 3.33613959 9.0625 5.4375 C10.34833984 6.33275391 10.34833984 6.33275391 11.66015625 7.24609375 C13.63281499 8.72476449 15.32313057 10.20217606 17 12 C16.67 12.66 16.34 13.32 16 14 C14.35 13.34 12.7 12.68 11 12 C11 11.34 11 10.68 11 10 C10.01 10.495 10.01 10.495 9 11 C9 11.66 9 12.32 9 13 C8.41992188 12.9278125 7.83984375 12.855625 7.2421875 12.78125 C6.46101563 12.6884375 5.67984375 12.595625 4.875 12.5 C4.05386719 12.40203125 3.23273438 12.3040625 2.38671875 12.203125 C-0.15356686 11.92300558 -0.15356686 11.92300558 -3.3125 12.25 C-6 12 -6 12 -8.375 9.5 C-8.91125 8.675 -9.4475 7.85 -10 7 C-6.7 4.69 -3.4 2.38 0 0 Z " fill="#F5DAA7" transform="translate(62,9)"/>
<path d="M0 0 C0.33 0.66 0.66 1.32 1 2 C1.99 2 2.98 2 4 2 C3.46908026 4.38913883 2.8532284 6.29354319 1.75 8.5 C1.5025 9.325 1.255 10.15 1 11 C1.47566406 11.52078125 1.95132813 12.0415625 2.44140625 12.578125 C4.83923518 16.30407471 4.3193543 19.92247425 4.1875 24.25 C4.17396484 25.09046875 4.16042969 25.9309375 4.14648438 26.796875 C4.11123464 28.86485938 4.0574302 30.93251271 4 33 C3.34 32.67 2.68 32.34 2 32 C1.375 29.4375 1.375 29.4375 1 27 C1 28.98 1 30.96 1 33 C-2.465 33.495 -2.465 33.495 -6 34 C-5.72285156 33.50371094 -5.44570312 33.00742188 -5.16015625 32.49609375 C-2.50326247 27.51323603 0.06802932 22.6502268 -1.6171875 16.890625 C-2.14552266 15.51192183 -2.70719186 14.14530973 -3.30859375 12.796875 C-4 11 -4 11 -4 8 C-4.66 7.67 -5.32 7.34 -6 7 C-5.34 7 -4.68 7 -4 7 C-4 6.34 -4 5.68 -4 5 C-3.34 4.67 -2.68 4.34 -2 4 C-1.67 3.01 -1.34 2.02 -1 1 C-0.67 0.67 -0.34 0.34 0 0 Z " fill="#F8D8A7" transform="translate(102,52)"/>
<path d="M0 0 C1.67542976 0.28604898 3.34385343 0.61781233 5 1 C5.625 3.8125 5.625 3.8125 6 7 C5.01 8.485 5.01 8.485 4 10 C4.94875 10.268125 5.8975 10.53625 6.875 10.8125 C10 12 10 12 12 15 C11.34 15 10.68 15 10 15 C9.34 16.98 8.68 18.96 8 21 C7.34 21 6.68 21 6 21 C6.33 18.03 6.66 15.06 7 12 C6.21625 12.20625 5.4325 12.4125 4.625 12.625 C3.75875 12.74875 2.8925 12.8725 2 13 C1.34 12.34 0.68 11.68 0 11 C0.99 10.67 1.98 10.34 3 10 C3 9.01 3 8.02 3 7 C1.68 7.33 0.36 7.66 -1 8 C-1 8.66 -1 9.32 -1 10 C-1.66 10 -2.32 10 -3 10 C-3.66 11.32 -4.32 12.64 -5 14 C-6.98 13.34 -8.96 12.68 -11 12 C-11 11.01 -11 10.02 -11 9 C-10.34 9 -9.68 9 -9 9 C-9 7.68 -9 6.36 -9 5 C-7.68 5 -6.36 5 -5 5 C-5 4.01 -5 3.02 -5 2 C-4.360625 1.855625 -3.72125 1.71125 -3.0625 1.5625 C-1.02454854 1.18992819 -1.02454854 1.18992819 0 0 Z " fill="#F2D2BF" transform="translate(59,23)"/>
<path d="M0 0 C1.65 0 3.3 0 5 0 C5 0.66 5 1.32 5 2 C5.66 2 6.32 2 7 2 C7 2.66 7 3.32 7 4 C8.65 4 10.3 4 12 4 C11.67 5.98 11.34 7.96 11 10 C10.01 9.67 9.02 9.34 8 9 C8 8.01 8 7.02 8 6 C7.34 6 6.68 6 6 6 C6.33 7.65 6.66 9.3 7 11 C8.32 11 9.64 11 11 11 C11 11.66 11 12.32 11 13 C10.34 13 9.68 13 9 13 C9 13.66 9 14.32 9 15 C8.34 15 7.68 15 7 15 C7 14.01 7 13.02 7 12 C5.576875 12.2784375 5.576875 12.2784375 4.125 12.5625 C1 13 1 13 -1 12 C-1.6875 10.0625 -1.6875 10.0625 -2 8 C-1.67 7.34 -1.34 6.68 -1 6 C-1.66 6 -2.32 6 -3 6 C-3 7.32 -3 8.64 -3 10 C-3.99 10 -4.98 10 -6 10 C-6.33 8.02 -6.66 6.04 -7 4 C-5.35 4 -3.7 4 -2 4 C-2 3.34 -2 2.68 -2 2 C-1.34 2 -0.68 2 0 2 C0 1.34 0 0.68 0 0 Z " fill="#E2AF99" transform="translate(41,63)"/>
<path d="M0 0 C2.64 0.33 5.28 0.66 8 1 C8 2.32 8 3.64 8 5 C6.68 5.33 5.36 5.66 4 6 C4.33 6.99 4.66 7.98 5 9 C4.67 9.66 4.34 10.32 4 11 C6.05270463 9.15811388 6.05270463 9.15811388 7 7 C7.66 7 8.32 7 9 7 C9 8.98 9 10.96 9 13 C11.64 13 14.28 13 17 13 C16.67 13.99 16.34 14.98 16 16 C10.375 16.25 10.375 16.25 7 14 C7 13.34 7 12.68 7 12 C6.34 12 5.68 12 5 12 C4.67 12.66 4.34 13.32 4 14 C2 16 2 16 -0.625 16.125 C-1.40875 16.08375 -2.1925 16.0425 -3 16 C-2.34 15.01 -1.68 14.02 -1 13 C-0.01 13 0.98 13 2 13 C0.02 12.34 -1.96 11.68 -4 11 C-4 9 -4 9 -2 7 C-2.33 6.01 -2.66 5.02 -3 4 C-2.34 3.67 -1.68 3.34 -1 3 C-0.67 2.01 -0.34 1.02 0 0 Z " fill="#F4D2BF" transform="translate(31,62)"/>
<path d="M0 0 C1.625 2.625 1.625 2.625 2 5 C1.34 5 0.68 5 0 5 C0 4.01 0 3.02 0 2 C-1.97536745 2.34786708 -1.97536745 2.34786708 -4 3 C-4.33 3.66 -4.66 4.32 -5 5 C-5.33 4.01 -5.66 3.02 -6 2 C-6.8971875 2.2784375 -6.8971875 2.2784375 -7.8125 2.5625 C-10 3 -10 3 -13 2 C-13.66 2.66 -14.32 3.32 -15 4 C-15.99 3.67 -16.98 3.34 -18 3 C-18 3.99 -18 4.98 -18 6 C-19.32 6 -20.64 6 -22 6 C-22 7.32 -22 8.64 -22 10 C-22.66 10 -23.32 10 -24 10 C-23.67 10.99 -23.34 11.98 -23 13 C-21.35 13 -19.7 13 -18 13 C-17.67 13.99 -17.34 14.98 -17 16 C-17.33 16.66 -17.66 17.32 -18 18 C-18.66 18 -19.32 18 -20 18 C-20.33 17.34 -20.66 16.68 -21 16 C-22.98 16.33 -24.96 16.66 -27 17 C-26.88754823 12.3997002 -26.74323648 8.34478091 -23.8125 4.625 C-16.79118645 -1.92822598 -8.94251631 -3.32744793 0 0 Z " fill="#FEF5EE" transform="translate(72,22)"/>
<path d="M0 0 C2 0.875 2 0.875 3.25 3.4375 C3.4975 4.241875 3.745 5.04625 4 5.875 C4.99 5.875 5.98 5.875 7 5.875 C6.67 7.195 6.34 8.515 6 9.875 C5.34 9.875 4.68 9.875 4 9.875 C4 10.535 4 11.195 4 11.875 C-2.625 13 -2.625 13 -6 11.875 C-6 11.215 -6 10.555 -6 9.875 C-6.66 9.875 -7.32 9.875 -8 9.875 C-8.33 8.555 -8.66 7.235 -9 5.875 C-8.01 5.875 -7.02 5.875 -6 5.875 C-5.71125 5.070625 -5.4225 4.26625 -5.125 3.4375 C-3.81600465 0.45589949 -3.26005239 -0.20375327 0 0 Z " fill="#E4B099" transform="translate(84,68.125)"/>
<path d="M0 0 C0.66 0 1.32 0 2 0 C1.70368676 6.81520452 -1.30464197 11.38350782 -5 17 C-8.80319369 15.73226877 -9.2242337 14.41269006 -11.1875 11 C-11.71730469 10.0925 -12.24710938 9.185 -12.79296875 8.25 C-14 6 -14 6 -14 5 C-9.38 5 -4.76 5 0 5 C0 3.35 0 1.7 0 0 Z " fill="#F7D89D" transform="translate(69,85)"/>
<path d="M0 0 C0 0.66 0 1.32 0 2 C-3 4 -3 4 -5 5 C-5.40729228 7.32156597 -5.74438677 9.6568787 -6 12 C-6.33 11.34 -6.66 10.68 -7 10 C-7.70125 10.20625 -8.4025 10.4125 -9.125 10.625 C-12.60186072 11.07850357 -14.77398123 10.27540277 -18 9 C-17.67 6.69 -17.34 4.38 -17 2 C-14.5625 2.375 -14.5625 2.375 -12 3 C-11.67 3.66 -11.34 4.32 -11 5 C-10.34 4.67 -9.68 4.34 -9 4 C-9 3.34 -9 2.68 -9 2 C-5.62902617 0.50178941 -3.79557881 0 0 0 Z " fill="#ECC4B1" transform="translate(85,64)"/>
<path d="M0 0 C0.66 0 1.32 0 2 0 C2.4125 0.495 2.825 0.99 3.25 1.5 C5.76822501 3.65847858 7.79375585 3.21374961 11 3 C11 3.99 11 4.98 11 6 C10.01 6.33 9.02 6.66 8 7 C6.77030122 10.51190809 6.77030122 10.51190809 6 14 C5.401875 13.67 4.80375 13.34 4.1875 13 C1.94613529 11.79212012 1.94613529 11.79212012 -1 12 C-0.6875 10.0625 -0.6875 10.0625 0 8 C0.99 7.67 1.98 7.34 3 7 C2.67 6.67 2.34 6.34 2 6 C1.401875 6.495 0.80375 6.99 0.1875 7.5 C-2 9 -2 9 -5 9 C-4.67 7.68 -4.34 6.36 -4 5 C-2.68 5 -1.36 5 0 5 C0 3.35 0 1.7 0 0 Z " fill="#E0AE98" transform="translate(36,74)"/>
<path d="M0 0 C0.66 0 1.32 0 2 0 C2.26554687 0.63808594 2.53109375 1.27617188 2.8046875 1.93359375 C3.15789063 2.75988281 3.51109375 3.58617188 3.875 4.4375 C4.39707031 5.67306641 4.39707031 5.67306641 4.9296875 6.93359375 C5.8244937 9.15746715 5.8244937 9.15746715 8 10 C8 10.99 8 11.98 8 13 C2.88559082 14.1058182 -0.1628287 14.09174975 -5 12 C-5 11.01 -5 10.02 -5 9 C-4.01 9 -3.02 9 -2 9 C-1.34 6.03 -0.68 3.06 0 0 Z " fill="#FBE2A4" transform="translate(23,75)"/>
<path d="M0 0 C2.625 0.375 2.625 0.375 5 1 C5.66 2.98 6.32 4.96 7 7 C7.99 7 8.98 7 10 7 C10 7.66 10 8.32 10 9 C11.65 9 13.3 9 15 9 C15 10.32 15 11.64 15 13 C14.34 13 13.68 13 13 13 C13 14.32 13 15.64 13 17 C12.01 17 11.02 17 10 17 C10 18.32 10 19.64 10 21 C9.34 20.67 8.68 20.34 8 20 C7.375 17.4375 7.375 17.4375 7 15 C5.35 15.33 3.7 15.66 2 16 C2.66 15.01 3.32 14.02 4 13 C4.66 13.33 5.32 13.66 6 14 C6 13.34 6 12.68 6 12 C6.66 12 7.32 12 8 12 C8.33 10.68 8.66 9.36 9 8 C7.68 8.33 6.36 8.66 5 9 C4.67 7.02 4.34 5.04 4 3 C1.03 2.505 1.03 2.505 -2 2 C-1.34 1.34 -0.68 0.68 0 0 Z " fill="#F4D4C3" transform="translate(82,66)"/>
<path d="M0 0 C2.21151604 3.31727407 3.33198453 5.292651 2.5625 9.25 C2.376875 9.8275 2.19125 10.405 2 11 C0.68 10.67 -0.64 10.34 -2 10 C-2.33 10.99 -2.66 11.98 -3 13 C-3.721875 12.21625 -4.44375 11.4325 -5.1875 10.625 C-7.83299041 8.15587562 -9.60373611 7.06739722 -13 6 C-13 4.68 -13 3.36 -13 2 C-12.34 2 -11.68 2 -11 2 C-11 2.66 -11 3.32 -11 4 C-9.2857711 5.23396041 -9.2857711 5.23396041 -7 6 C-4.2806707 5.21297649 -4.2806707 5.21297649 -2 4 C-2 3.34 -2 2.68 -2 2 C-1.34 2 -0.68 2 0 2 C0 1.34 0 0.68 0 0 Z " fill="#FAE4D9" transform="translate(69,42)"/>
<path d="M0 0 C2.12534659 0.14069196 4.25027529 0.28770921 6.375 0.4375 C8.15003906 0.55931641 8.15003906 0.55931641 9.9609375 0.68359375 C13 1 13 1 15 2 C14.46884894 6.51478398 12.63379708 9.34666857 10 13 C9.01 12.67 8.02 12.34 7 12 C7 11.01 7 10.02 7 9 C5.83333333 5.83333333 5.83333333 5.83333333 4 3 C1.92309422 2.03955898 1.92309422 2.03955898 0 2 C0 1.34 0 0.68 0 0 Z " fill="#F7DB9B" transform="translate(81,42)"/>
<path d="M0 0 C3.16115776 1.36983503 3.9927092 1.9890638 6 5 C4.9275 5.515625 3.855 6.03125 2.75 6.5625 C-1.46996205 8.93355373 -2.93145982 11.69743642 -5 16 C-5.66 16 -6.32 16 -7 16 C-9.19230769 11.61538462 -9.19230769 11.61538462 -8.375 9 C-5.87151292 5.35856425 -3.70620026 2.47080017 0 0 Z " fill="#F6D7A8" transform="translate(51,17)"/>
<path d="M0 0 C4.29 0 8.58 0 13 0 C12.236875 0.70125 11.47375 1.4025 10.6875 2.125 C8.03409522 4.96352604 6.55999257 7.46949051 5 11 C5.66 11.33 6.32 11.66 7 12 C5.68 12 4.36 12 3 12 C2.29773859 10.75823305 1.61370891 9.50614401 0.9375 8.25 C0.36322266 7.20585938 0.36322266 7.20585938 -0.22265625 6.140625 C-1 4 -1 4 0 0 Z " fill="#F7DC9E" transform="translate(31,43)"/>
<path d="M0 0 C0.99 0.33 1.98 0.66 3 1 C3 1.66 3 2.32 3 3 C3.78375 3.144375 4.5675 3.28875 5.375 3.4375 C8 4 8 4 10 5 C11.1577506 8.47325181 11.06866652 11.36067448 11 15 C8 11.25 8 11.25 8 9 C7.34 9 6.68 9 6 9 C5.67 10.32 5.34 11.64 5 13 C3.35 13.33 1.7 13.66 0 14 C0 11.36 0 8.72 0 6 C0.66 6 1.32 6 2 6 C2 6.99 2 7.98 2 9 C2.66 9 3.32 9 4 9 C3.34 7.88625 2.68 6.7725 2 5.625 C0 2.25 0 2.25 0 0 Z " fill="#F3D0A1" transform="translate(70,18)"/>
<path d="M0 0 C0.99 0.33 1.98 0.66 3 1 C3 6.28 3 11.56 3 17 C2.34 16.67 1.68 16.34 1 16 C0.375 13.4375 0.375 13.4375 0 11 C0 12.98 0 14.96 0 17 C-2.31 17.33 -4.62 17.66 -7 18 C-6.1028125 16.329375 -6.1028125 16.329375 -5.1875 14.625 C-2.81973188 9.92316864 -1.37095582 5.06838212 0 0 Z " fill="#F6D89E" transform="translate(103,68)"/>
<path d="M0 0 C1.051875 0.350625 2.10375 0.70125 3.1875 1.0625 C6.7954681 1.94970527 8.52632489 2.05262882 12 1 C11.67 2.32 11.34 3.64 11 5 C11.66 5.33 12.32 5.66 13 6 C12.67 6.99 12.34 7.98 12 9 C10.35 8.67 8.7 8.34 7 8 C6.67 8.66 6.34 9.32 6 10 C6 9.34 6 8.68 6 8 C5.01 8 4.02 8 3 8 C0 2.25 0 2.25 0 0 Z " fill="#EBC4B1" transform="translate(86,65)"/>
<path d="M0 0 C0.66 1.32 1.32 2.64 2 4 C3.32 3.67 4.64 3.34 6 3 C7.32 4.65 8.64 6.3 10 8 C5.98203197 8.63807354 2.07266637 9.15164183 -2 9 C-4.75 6.5625 -4.75 6.5625 -6 4 C-4.02 2.68 -2.04 1.36 0 0 Z " fill="#F8DEA9" transform="translate(58,12)"/>
<path d="M0 0 C0 1.98 0 3.96 0 6 C-3.63 6 -7.26 6 -11 6 C-11 5.67 -11 5.34 -11 5 C-8.69 5 -6.38 5 -4 5 C-4 4.01 -4 3.02 -4 2 C-5.93784265 2.14120714 -7.87526955 2.28812873 -9.8125 2.4375 C-11.43091797 2.55931641 -11.43091797 2.55931641 -13.08203125 2.68359375 C-16.05989905 2.90212461 -16.05989905 2.90212461 -19 4 C-19 6.31 -19 8.62 -19 11 C-21.1519437 7.77208445 -21.20086443 6.71599191 -21 3 C-13.92444501 -0.0017506 -7.62951555 -0.34855655 0 0 Z " fill="#EAB937" transform="translate(44,37)"/>
<path d="M0 0 C0.66 0.99 1.32 1.98 2 3 C1.67 3.66 1.34 4.32 1 5 C3.05270463 3.15811388 3.05270463 3.15811388 4 1 C4.66 1 5.32 1 6 1 C6 2.98 6 4.96 6 7 C8.64 7 11.28 7 14 7 C13.67 7.99 13.34 8.98 13 10 C7.375 10.25 7.375 10.25 4 8 C4 7.34 4 6.68 4 6 C3.34 6 2.68 6 2 6 C1.67 6.66 1.34 7.32 1 8 C-1 10 -1 10 -3.625 10.125 C-4.40875 10.08375 -5.1925 10.0425 -6 10 C-5.34 9.01 -4.68 8.02 -4 7 C-3.01 7 -2.02 7 -1 7 C-1.309375 5.824375 -1.309375 5.824375 -1.625 4.625 C-1.74875 3.75875 -1.8725 2.8925 -2 2 C-1.34 1.34 -0.68 0.68 0 0 Z " fill="#FDDDC9" transform="translate(34,68)"/>
<path d="M0 0 C2 3 2 3 2 7 C-0.31 7.66 -2.62 8.32 -5 9 C-5 8.34 -5 7.68 -5 7 C-6.65 7.66 -8.3 8.32 -10 9 C-10.36625971 4.48279689 -10.36625971 4.48279689 -8.625 2.1875 C-7 1 -7 1 -5 1 C-5 1.66 -5 2.32 -5 3 C-3.35 2.67 -1.7 2.34 0 2 C0 1.34 0 0.68 0 0 Z " fill="#EAC1AE" transform="translate(89,79)"/>
<path d="M0 0 C1.79378179 2.69067269 2.97313958 5.08578257 4.1875 8.0625 C4.55230469 8.94035156 4.91710937 9.81820312 5.29296875 10.72265625 C6 13 6 13 5 15 C2.4375 15.625 2.4375 15.625 0 16 C0 15.34 0 14.68 0 14 C-0.66 14 -1.32 14 -2 14 C-2.21192221 8.80790596 -1.5912689 4.873261 0 0 Z " fill="#FAD99C" transform="translate(22,42)"/>
<path d="M0 0 C0.598125 0.33 1.19625 0.66 1.8125 1 C4.05386471 2.20787988 4.05386471 2.20787988 7 2 C6.67 3.65 6.34 5.3 6 7 C5.34 7 4.68 7 4 7 C4 7.99 4 8.98 4 10 C4.66 10 5.32 10 6 10 C6.33 11.32 6.66 12.64 7 14 C3.9995144 12.99983813 1.67478244 11.6627026 -1 10 C-0.7215625 9.1028125 -0.7215625 9.1028125 -0.4375 8.1875 C0.22093687 5.83591238 0.22093687 5.83591238 -1 3 C-0.67 2.01 -0.34 1.02 0 0 Z " fill="#DFB09C" transform="translate(64,23)"/>
<path d="M0 0 C1.65 0.33 3.3 0.66 5 1 C4.5837413 7.38263338 2.34649204 12.55804099 -1 18 C-1.66 18.33 -2.32 18.66 -3 19 C-4.32 17.68 -5.64 16.36 -7 15 C-5.68 13.35 -4.36 11.7 -3 10 C-2.67 10.99 -2.34 11.98 -2 13 C-1.34 13 -0.68 13 0 13 C0 11.02 0 9.04 0 7 C0.99 7 1.98 7 3 7 C3 5.02 3 3.04 3 1 C2.01 0.67 1.02 0.34 0 0 Z " fill="#EBBA2D" transform="translate(98,39)"/>
<path d="M0 0 C3.63 0 7.26 0 11 0 C11.33 0.99 11.66 1.98 12 3 C11.67 3.66 11.34 4.32 11 5 C7.04 5 3.08 5 -1 5 C-0.67 3.35 -0.34 1.7 0 0 Z " fill="#FDFBF6" transform="translate(58,85)"/>
<path d="M0 0 C0.99 0.33 1.98 0.66 3 1 C3 1.66 3 2.32 3 3 C3.66 3 4.32 3 5 3 C5 3.99 5 4.98 5 6 C6.32 6 7.64 6 9 6 C9 6.66 9 7.32 9 8 C8.34 8 7.68 8 7 8 C7 8.66 7 9.32 7 10 C6.34 10 5.68 10 5 10 C5 9.01 5 8.02 5 7 C3.576875 7.2784375 3.576875 7.2784375 2.125 7.5625 C-1 8 -1 8 -3 7 C-3.625 4.9375 -3.625 4.9375 -4 3 C-3.34 3 -2.68 3 -2 3 C-2 2.34 -2 1.68 -2 1 C-1.34 0.67 -0.68 0.34 0 0 Z " fill="#E09679" transform="translate(43,68)"/>
<path d="M0 0 C0.66 0 1.32 0 2 0 C2.98844951 3.94647618 2.96191905 7.27392964 2.5625 11.3125 C2.46066406 12.38113281 2.35882813 13.44976562 2.25390625 14.55078125 C2.17011719 15.35902344 2.08632812 16.16726562 2 17 C1.34 17 0.68 17 0 17 C-0.12375 17.804375 -0.2475 18.60875 -0.375 19.4375 C-0.684375 20.7059375 -0.684375 20.7059375 -1 22 C-1.66 22.33 -2.32 22.66 -3 23 C-2.76796875 21.98099609 -2.76796875 21.98099609 -2.53125 20.94140625 C-1.71382632 16.41552365 -1.55532649 11.86323079 -1.28125 7.27734375 C-1.06011678 4.7005275 -0.73734065 2.46394667 0 0 Z " fill="#FAF1E7" transform="translate(108,36)"/>
<path d="M0 0 C0 0.99 0 1.98 0 3 C1.32 2.67 2.64 2.34 4 2 C4 2.66 4 3.32 4 4 C1.11584117 5.44207941 -1.41721528 5.09394887 -4.625 5.0625 C-5.81351562 5.05347656 -7.00203125 5.04445313 -8.2265625 5.03515625 C-9.14179687 5.02355469 -10.05703125 5.01195312 -11 5 C-11.33 5.66 -11.66 6.32 -12 7 C-12 5.35 -12 3.7 -12 2 C-10.68 2.33 -9.36 2.66 -8 3 C-7.67 2.01 -7.34 1.02 -7 0 C-4.3333581 -1.33332095 -2.83319697 -0.67102033 0 0 Z " fill="#F9D898" transform="translate(93,31)"/>
<path d="M0 0 C0.33 0.66 0.66 1.32 1 2 C-0.98 2.99 -0.98 2.99 -3 4 C-1.68 4 -0.36 4 1 4 C1.66 3.34 2.32 2.68 3 2 C3.33 3.32 3.66 4.64 4 6 C2.68 6.33 1.36 6.66 0 7 C-0.33 8.65 -0.66 10.3 -1 12 C-4 11 -4 11 -5.16796875 8.93359375 C-5.50441406 8.10988281 -5.84085938 7.28617187 -6.1875 6.4375 C-6.53167969 5.61121094 -6.87585938 4.78492187 -7.23046875 3.93359375 C-7.48441406 3.29550781 -7.73835938 2.65742187 -8 2 C-7.01 2 -6.02 2 -5 2 C-3.31763529 1.37400383 -1.6476038 0.71247732 0 0 Z " fill="#FCEEDB" transform="translate(32,73)"/>
<path d="M0 0 C3.96 0 7.92 0 12 0 C12 0.66 12 1.32 12 2 C10.56589632 2.24954005 9.12739928 2.47392642 7.6875 2.6875 C6.88699219 2.81511719 6.08648437 2.94273438 5.26171875 3.07421875 C3 3 3 3 0 0 Z M-3 2 C-2.34 2 -1.68 2 -1 2 C-1 2.66 -1 3.32 -1 4 C-0.34 4 0.32 4 1 4 C1 6.64 1 9.28 1 12 C0.01 12.495 0.01 12.495 -1 13 C-3.32590854 9.36576791 -3.16265833 6.22911669 -3 2 Z " fill="#F4BE11" transform="translate(28,39)"/>
<path d="M0 0 C2.0078125 0.1328125 2.0078125 0.1328125 5.0078125 1.1328125 C5.3378125 2.1228125 5.6678125 3.1128125 6.0078125 4.1328125 C4.6878125 4.1328125 3.3678125 4.1328125 2.0078125 4.1328125 C2.0078125 3.4728125 2.0078125 2.8128125 2.0078125 2.1328125 C1.0178125 2.4628125 0.0278125 2.7928125 -0.9921875 3.1328125 C-1.3221875 4.7828125 -1.6521875 6.4328125 -1.9921875 8.1328125 C-1.3321875 8.4628125 -0.6721875 8.7928125 0.0078125 9.1328125 C-1.9721875 9.4628125 -3.9521875 9.7928125 -5.9921875 10.1328125 C-5.9921875 9.4728125 -5.9921875 8.8128125 -5.9921875 8.1328125 C-5.3321875 8.1328125 -4.6721875 8.1328125 -3.9921875 8.1328125 C-4.56671496 4.20205606 -4.56671496 4.20205606 -6.9921875 1.1328125 C-5.11159717 -0.74777783 -2.49328712 0.00920032 0 0 Z " fill="#FEF9F5" transform="translate(85.9921875,53.8671875)"/>
<path d="M0 0 C2.25 -0.0625 2.25 -0.0625 5 1 C6.69300427 3.86674844 7.86963623 6.87413371 9 10 C2.25 8.375 2.25 8.375 0 5 C-0.125 2.3125 -0.125 2.3125 0 0 Z " fill="#FEF9F2" transform="translate(81,44)"/>
<path d="M0 0 C4.24727235 0.47191915 6.23493602 2.92770669 9 6 C9 6.33 9 6.66 9 7 C5.37 7 1.74 7 -2 7 C-1.34 4.69 -0.68 2.38 0 0 Z " fill="#F2D6AA" transform="translate(60,78)"/>
<path d="M0 0 C1.98 0 3.96 0 6 0 C6.33 1.98 6.66 3.96 7 6 C6.34 6 5.68 6 5 6 C5 6.66 5 7.32 5 8 C3.68 8 2.36 8 1 8 C1 7.34 1 6.68 1 6 C0.34 6 -0.32 6 -1 6 C-0.67 4.02 -0.34 2.04 0 0 Z " fill="#D7876A" transform="translate(60,35)"/>
<path d="M0 0 C1.32 0 2.64 0 4 0 C5.61949011 2.57213134 6.04408751 3.67669159 5.625 6.75 C5.41875 7.4925 5.2125 8.235 5 9 C2.69 8.34 0.38 7.68 -2 7 C-2 6.01 -2 5.02 -2 4 C-1.34 4 -0.68 4 0 4 C0 2.68 0 1.36 0 0 Z " fill="#ECC5B1" transform="translate(50,28)"/>
<path d="M0 0 C3.24208567 0.35049575 4.61527704 0.56221181 6.8125 3.0625 C7.204375 3.701875 7.59625 4.34125 8 5 C6.8125 6.5 6.8125 6.5 5 8 C2.3125 8.1875 2.3125 8.1875 0 8 C0 5.33333333 0 2.66666667 0 0 Z " fill="#EDC4AF" transform="translate(68,66)"/>
<path d="M0 0 C2.475 0.495 2.475 0.495 5 1 C5 1.66 5 2.32 5 3 C5.99 2.67 6.98 2.34 8 2 C8 2.99 8 3.98 8 5 C8.66 5.33 9.32 5.66 10 6 C6.62902617 7.49821059 4.79557881 8 1 8 C0.67 5.36 0.34 2.72 0 0 Z " fill="#EBC2AE" transform="translate(47,37)"/>
<path d="M0 0 C2 2 2 2 2.25 5.4375 C2 9 2 9 0 12 C0 9.36 0 6.72 0 4 C-6.66957927 2.35993952 -13.15182898 1.48641215 -20 1 C-20 0.67 -20 0.34 -20 0 C-5.71289062 -1.39648438 -5.71289062 -1.39648438 0 0 Z " fill="#FEE99F" transform="translate(102,36)"/>
<path d="M0 0 C0.53625 0.2475 1.0725 0.495 1.625 0.75 C-0.80819829 3.69545056 -2.69913607 4.07286717 -6.375 4.75 C-6.705 5.41 -7.035 6.07 -7.375 6.75 C-6.715 7.08 -6.055 7.41 -5.375 7.75 C-9.83 8.245 -9.83 8.245 -14.375 8.75 C-14.375 9.41 -14.375 10.07 -14.375 10.75 C-15.035 10.75 -15.695 10.75 -16.375 10.75 C-16.3125 8.9375 -16.3125 8.9375 -15.375 6.75 C-13.701152 5.96230683 -12.01687268 5.18706369 -10.28125 4.546875 C-8.05636568 3.69777936 -8.05636568 3.69777936 -5.1875 1.5 C-2.375 -0.25 -2.375 -0.25 0 0 Z " fill="#F6DBB1" transform="translate(34.375,29.25)"/>
<path d="M0 0 C0 0.66 0 1.32 0 2 C-2.24401957 3.94875383 -4.33636533 5.66818267 -7 7 C-7 6.34 -7 5.68 -7 5 C-8.45880109 5.14107747 -9.91703551 5.28802415 -11.375 5.4375 C-12.18710938 5.51871094 -12.99921875 5.59992188 -13.8359375 5.68359375 C-16.04272805 5.89090114 -16.04272805 5.89090114 -18 7 C-18.66 5.35 -19.32 3.7 -20 2 C-19.11957031 2.10699219 -18.23914063 2.21398437 -17.33203125 2.32421875 C-16.17058594 2.44410156 -15.00914063 2.56398438 -13.8125 2.6875 C-12.08966797 2.87892578 -12.08966797 2.87892578 -10.33203125 3.07421875 C-6.12265669 2.98045777 -3.8486805 0 0 0 Z " fill="#F1D1A8" transform="translate(95,87)"/>
<path d="M0 0 C0 0.99 0 1.98 0 3 C-0.66 3.66 -1.32 4.32 -2 5 C-2.6425235 7.06874034 -2.6425235 7.06874034 -3 9 C-3.66 9 -4.32 9 -5 9 C-5 9.99 -5 10.98 -5 12 C-5.66 12 -6.32 12 -7 12 C-8.0326802 9.21176345 -8.04509293 8.1322726 -7.0625 5.25 C-6.711875 4.5075 -6.36125 3.765 -6 3 C-5.34 3 -4.68 3 -4 3 C-4 2.34 -4 1.68 -4 1 C-2 0 -2 0 0 0 Z " fill="#DCA088" transform="translate(62,30)"/>
<path d="M0 0 C0.33 0.66 0.66 1.32 1 2 C3.02463255 2.65213292 3.02463255 2.65213292 5 3 C3.89131683 5.21736634 2.50559539 7.03617993 1 9 C-0.32 8.67 -1.64 8.34 -3 8 C-3.33 6.68 -3.66 5.36 -4 4 C-3.01 3.67 -2.02 3.34 -1 3 C-0.67 2.01 -0.34 1.02 0 0 Z " fill="#F1D3C0" transform="translate(77,78)"/>
<path d="M0 0 C1.134375 0.020625 2.26875 0.04125 3.4375 0.0625 C3.7675 2.0425 4.0975 4.0225 4.4375 6.0625 C1.7975 5.7325 -0.8425 5.4025 -3.5625 5.0625 C-4.125 3.125 -4.125 3.125 -4.5625 1.0625 C-3.5625 0.0625 -3.5625 0.0625 0 0 Z " fill="#F6DAA5" transform="translate(63.5625,56.9375)"/>
<path d="M0 0 C0.99 0 1.98 0 3 0 C3.17942163 3.94727588 3.09350689 6.5980513 1 10 C2.32 10 3.64 10 5 10 C5 10.66 5 11.32 5 12 C2.69 11.67 0.38 11.34 -2 11 C-2.33 10.01 -2.66 9.02 -3 8 C-3.66 7.67 -4.32 7.34 -5 7 C-3.5459375 6.5978125 -3.5459375 6.5978125 -2.0625 6.1875 C-0.5465625 5.5996875 -0.5465625 5.5996875 1 5 C1.33 4.01 1.66 3.02 2 2 C1.01 1.67 0.02 1.34 -1 1 C-0.67 0.67 -0.34 0.34 0 0 Z " fill="#FEF6E7" transform="translate(53,43)"/>
<path d="M0 0 C2.26171875 -0.2421875 2.26171875 -0.2421875 5 0 C7.01953125 1.6796875 7.01953125 1.6796875 8.8125 3.875 C9.41707031 4.59429688 10.02164063 5.31359375 10.64453125 6.0546875 C12 8 12 8 12 10 C9.69 9.67 7.38 9.34 5 9 C5.99 8.34 6.98 7.68 8 7 C6.8354799 5.33378575 6.8354799 5.33378575 5 4 C2.34533951 4.23043864 2.34533951 4.23043864 0 5 C0 3.35 0 1.7 0 0 Z " fill="#FBE29F" transform="translate(59,12)"/>
<path d="M0 0 C2 2 2 2 3.5 5.5625 C4.58995587 9.06202674 4.58995587 9.06202674 7 10 C6.67 10.66 6.34 11.32 6 12 C3.69 11.34 1.38 10.68 -1 10 C-0.67 6.7 -0.34 3.4 0 0 Z " fill="#E6B840" transform="translate(24,75)"/>
<path d="M0 0 C1.32 0.66 2.64 1.32 4 2 C4.33 1.34 4.66 0.68 5 0 C7.475 0.99 7.475 0.99 10 2 C9.67 2.66 9.34 3.32 9 4 C6.24921116 4.91692961 4.64051087 5.10886083 1.8125 5.0625 C-0.0746875 5.0315625 -0.0746875 5.0315625 -2 5 C-1.34 3.35 -0.68 1.7 0 0 Z " fill="#FEF7EE" transform="translate(62,52)"/>
<path d="M0 0 C1.51158971 3.02317942 0.87822849 5.66012152 0.625 9 C0.53476562 10.258125 0.44453125 11.51625 0.3515625 12.8125 C0 16 0 16 -1 18 C-0.01 18.33 0.98 18.66 2 19 C2.33 19.99 2.66 20.98 3 22 C1.02 21.67 -0.96 21.34 -3 21 C-3 19.02 -3 17.04 -3 15 C-2.34 15 -1.68 15 -1 15 C-1.01160156 14.00097656 -1.02320313 13.00195312 -1.03515625 11.97265625 C-1.04417969 10.68230469 -1.05320312 9.39195313 -1.0625 8.0625 C-1.07410156 6.77472656 -1.08570313 5.48695312 -1.09765625 4.16015625 C-1 1 -1 1 0 0 Z " fill="#EADFD7" transform="translate(17,68)"/>
<path d="M0 0 C0.66 0 1.32 0 2 0 C2 0.66 2 1.32 2 2 C2.99 2.33 3.98 2.66 5 3 C4.45730469 3.18175781 3.91460937 3.36351562 3.35546875 3.55078125 C2.28232422 3.92783203 2.28232422 3.92783203 1.1875 4.3125 C0.47980469 4.55613281 -0.22789063 4.79976562 -0.95703125 5.05078125 C-3.08186845 5.89590466 -3.08186845 5.89590466 -4.625 7.625 C-5.07875 8.07875 -5.5325 8.5325 -6 9 C-8.1875 8.6875 -8.1875 8.6875 -10 8 C-7.97958823 4.96938234 -7.24314437 4.27760233 -4 3 C-3.01 3 -2.02 3 -1 3 C-0.67 2.01 -0.34 1.02 0 0 Z " fill="#DFB65F" transform="translate(76,51)"/>
<path d="M0 0 C0.495 0.165 0.99 0.33 1.5 0.5 C5.03444089 1.20688818 8.39690701 1.06005155 12 1 C12 1.33 12 1.66 12 2 C9.03 2.66 6.06 3.32 3 4 C3.33 6.64 3.66 9.28 4 12 C3.01 11.67 2.02 11.34 1 11 C1 8.36 1 5.72 1 3 C0.34 3 -0.32 3 -1 3 C-0.67 2.01 -0.34 1.02 0 0 Z " fill="#F0BD24" transform="translate(28,40)"/>
<path d="M0 0 C1.65 0.33 3.3 0.66 5 1 C5 3.62113708 4.68707555 5.50935112 4 8 C2.35 7.67 0.7 7.34 -1 7 C-1 5 -1 5 1 3 C0.67 2.01 0.34 1.02 0 0 Z " fill="#E6B8A3" transform="translate(28,66)"/>
<path d="M0 0 C1.32 0 2.64 0 4 0 C3.79375 0.598125 3.5875 1.19625 3.375 1.8125 C2.69328085 4.28450846 2.69328085 4.28450846 5 7 C3.35 7.33 1.7 7.66 0 8 C-0.66 6.02 -1.32 4.04 -2 2 C-1.34 1.34 -0.68 0.68 0 0 Z " fill="#E6B6A0" transform="translate(55,66)"/>
<path d="M0 0 C0.33 0 0.66 0 1 0 C1.3403125 1.670625 1.3403125 1.670625 1.6875 3.375 C2.60623658 7.16038373 2.60623658 7.16038373 5.625 8.4375 C6.40875 8.623125 7.1925 8.80875 8 9 C8 9.33 8 9.66 8 10 C1.375 10.125 1.375 10.125 -2 9 C-3 6 -3 6 -1.5625 2.8125 C-1.046875 1.884375 -0.53125 0.95625 0 0 Z " fill="#EFD5B7" transform="translate(80,44)"/>
<path d="M0 0 C2.64 0 5.28 0 8 0 C7.34 1.98 6.68 3.96 6 6 C5.67 5.34 5.34 4.68 5 4 C4.01 4.33 3.02 4.66 2 5 C-4.47933884 5.34710744 -4.47933884 5.34710744 -8 3 C-5.03 3 -2.06 3 1 3 C1.33 2.34 1.66 1.68 2 1 C1.34 0.67 0.68 0.34 0 0 Z " fill="#F3D9B0" transform="translate(39,90)"/>
<path d="M0 0 C1.32 0.66 2.64 1.32 4 2 C4 2.99 4 3.98 4 5 C1.10765685 5.82638376 -0.88742431 6 -4 6 C-3.67 4.35 -3.34 2.7 -3 1 C-2.34 1.33 -1.68 1.66 -1 2 C-0.67 1.34 -0.34 0.68 0 0 Z " fill="#E5B59E" transform="translate(48,81)"/>
<path d="M0 0 C0.66 0.99 1.32 1.98 2 3 C1.67 3.66 1.34 4.32 1 5 C1.99 5.33 2.98 5.66 4 6 C3.34 6 2.68 6 2 6 C1.67 6.66 1.34 7.32 1 8 C-1 10 -1 10 -3.625 10.125 C-4.40875 10.08375 -5.1925 10.0425 -6 10 C-5.34 9.01 -4.68 8.02 -4 7 C-3.01 7 -2.02 7 -1 7 C-1.309375 5.824375 -1.309375 5.824375 -1.625 4.625 C-1.74875 3.75875 -1.8725 2.8925 -2 2 C-1.34 1.34 -0.68 0.68 0 0 Z " fill="#F1CDBA" transform="translate(34,68)"/>
<path d="M0 0 C1.32 0.66 2.64 1.32 4 2 C4 2.99 4 3.98 4 5 C4.99 5.33 5.98 5.66 7 6 C6.67 6.66 6.34 7.32 6 8 C4.68 8 3.36 8 2 8 C2 7.34 2 6.68 2 6 C0.35 6 -1.3 6 -3 6 C-3.33 4.35 -3.66 2.7 -4 1 C-3.34 1 -2.68 1 -2 1 C-1.67 1.99 -1.34 2.98 -1 4 C-0.34 4.33 0.32 4.66 1 5 C0.67 3.35 0.34 1.7 0 0 Z " fill="#FCE7D7" transform="translate(51,68)"/>
<path d="M0 0 C3 3.75 3 3.75 3 6 C3.66 6.33 4.32 6.66 5 7 C0.8803623 8.29243536 -2.66831683 9.26252625 -7 9 C-6.401875 8.814375 -5.80375 8.62875 -5.1875 8.4375 C-1.90018201 6.27726247 -1.35145313 3.64892345 0 0 Z " fill="#EED3B2" transform="translate(45,45)"/>
<path d="M0 0 C0.66 0 1.32 0 2 0 C2 0.99 2 1.98 2 3 C2.66 3 3.32 3 4 3 C3.67 2.01 3.34 1.02 3 0 C3.66 0 4.32 0 5 0 C5 0.66 5 1.32 5 2 C5.66 2.33 6.32 2.66 7 3 C5.515 5.475 5.515 5.475 4 8 C2.68 7.67 1.36 7.34 0 7 C0 4.69 0 2.38 0 0 Z " fill="#F1D1BE" transform="translate(70,24)"/>
<path d="M0 0 C3.23356015 1.21258505 4.00856305 2.01284458 6 5 C2.7 5 -0.6 5 -4 5 C-2 1 -2 1 0 0 Z " fill="#EBB732" transform="translate(62,15)"/>
<path d="M0 0 C0 1.32 0 2.64 0 4 C-1.32 3.67 -2.64 3.34 -4 3 C-4.33 3.99 -4.66 4.98 -5 6 C-5.66 5.67 -6.32 5.34 -7 5 C-7 3.35 -7 1.7 -7 0 C-3.86650268 -1.04449911 -3.01031744 -0.93423645 0 0 Z " fill="#E4B79C" transform="translate(71,49)"/>
<path d="M0 0 C0.66 0 1.32 0 2 0 C2 1.65 2 3.3 2 5 C1.01 5 0.02 5 -1 5 C-0.773125 5.598125 -0.54625 6.19625 -0.3125 6.8125 C-0.209375 7.534375 -0.10625 8.25625 0 9 C-1.4375 10.75 -1.4375 10.75 -3 12 C-3.88336837 9.5332355 -4.1312406 8.36140628 -3.22265625 5.859375 C-2.83980469 5.16328125 -2.45695312 4.4671875 -2.0625 3.75 C-1.68222656 3.04359375 -1.30195312 2.3371875 -0.91015625 1.609375 C-0.60980469 1.07828125 -0.30945313 0.5471875 0 0 Z " fill="#F7BD11" transform="translate(99,41)"/>
<path d="M0 0 C2.97 0.495 2.97 0.495 6 1 C5.67 6.61 5.34 12.22 5 18 C4.67 18 4.34 18 4 18 C3.96261719 17.10796875 3.92523438 16.2159375 3.88671875 15.296875 C3.82097656 14.12640625 3.75523438 12.9559375 3.6875 11.75 C3.62949219 10.58984375 3.57148437 9.4296875 3.51171875 8.234375 C2.97930699 4.86920752 2.22039508 3.50017677 0 1 C0 0.67 0 0.34 0 0 Z " fill="#F9E0B4" transform="translate(102,36)"/>
<path d="M0 0 C0.99 0 1.98 0 3 0 C4.32 3.3 5.64 6.6 7 10 C5.68 9.67 4.36 9.34 3 9 C2.67 7.02 2.34 5.04 2 3 C0.35 3 -1.3 3 -3 3 C-2.01 2.67 -1.02 2.34 0 2 C0 1.34 0 0.68 0 0 Z " fill="#F5E9D5" transform="translate(41,94)"/>
<path d="M0 0 C0.33 0 0.66 0 1 0 C1.33 2.64 1.66 5.28 2 8 C-0.31 8.33 -2.62 8.66 -5 9 C-3.35 6.03 -1.7 3.06 0 0 Z " fill="#E5B744" transform="translate(101,77)"/>
<path d="M0 0 C0.71542969 0.14308594 1.43085938 0.28617187 2.16796875 0.43359375 C3.56982422 0.71396484 3.56982422 0.71396484 5 1 C8.99414062 1.79882812 8.99414062 1.79882812 12.98828125 2.59765625 C13.98408203 2.79681641 13.98408203 2.79681641 15 3 C14.01 3.33 13.02 3.66 12 4 C12 4.66 12 5.32 12 6 C8.98782888 5.35550393 6.48344164 4.34977818 3.75 2.9375 C3.04359375 2.57527344 2.3371875 2.21304688 1.609375 1.83984375 C1.07828125 1.56269531 0.5471875 1.28554687 0 1 C0 0.67 0 0.34 0 0 Z " fill="#FDF7E6" transform="translate(26,92)"/>
<path d="M0 0 C0.66 0 1.32 0 2 0 C2.66 3.96 3.32 7.92 4 12 C1.4375 10.5 1.4375 10.5 -1 8 C-1.15374792 5.12271746 -0.61846819 2.85446858 0 0 Z " fill="#E3BA66" transform="translate(62,69)"/>
<path d="M0 0 C-0.33 0.99 -0.66 1.98 -1 3 C-1.66 3 -2.32 3 -3 3 C-3 4.65 -3 6.3 -3 8 C-4.65 8.33 -6.3 8.66 -8 9 C-6.53333333 3.5 -6.53333333 3.5 -4 1.125 C-2 0 -2 0 0 0 Z " fill="#FEFBF8" transform="translate(44,45)"/>
<path d="M0 0 C0.33 0 0.66 0 1 0 C1 3.96 1 7.92 1 12 C-0.32 10.68 -1.64 9.36 -3 8 C-2.01 5.36 -1.02 2.72 0 0 Z " fill="#F9D8A3" transform="translate(105,40)"/>
<path d="M0 0 C0 1.65 0 3.3 0 5 C-2.64 5.66 -5.28 6.32 -8 7 C-8 6.01 -8 5.02 -8 4 C-1.125 0 -1.125 0 0 0 Z " fill="#FAD89C" transform="translate(98,87)"/>
<path d="M0 0 C0.66 1.32 1.32 2.64 2 4 C1.01 4.99 0.02 5.98 -1 7 C-4.875 5.25 -4.875 5.25 -6 3 C-4.68 3.33 -3.36 3.66 -2 4 C-2 3.01 -2 2.02 -2 1 C-1.34 0.67 -0.68 0.34 0 0 Z " fill="#EEBD28" transform="translate(65,103)"/>
<path d="M0 0 C0 1.66666667 0 3.33333333 0 5 C1.32 4.67 2.64 4.34 4 4 C3.67 5.32 3.34 6.64 3 8 C0.03 7.505 0.03 7.505 -3 7 C-2.625 4.0625 -2.625 4.0625 -2 1 C-1.34 0.67 -0.68 0.34 0 0 Z " fill="#CE7858" transform="translate(82,68)"/>
<path d="M0 0 C1.79378179 2.69067269 2.97313958 5.08578257 4.1875 8.0625 C4.55230469 8.94035156 4.91710937 9.81820312 5.29296875 10.72265625 C6 13 6 13 5 15 C2 10.25 2 10.25 2 8 C1.34 8 0.68 8 0 8 C-1.09658936 4.71023192 -0.79953138 3.28696233 0 0 Z " fill="#FCE89A" transform="translate(22,42)"/>
<path d="M0 0 C0.99 2.97 1.98 5.94 3 9 C2.01 8.67 1.02 8.34 0 8 C-0.33333333 6.66666667 -0.66666667 5.33333333 -1 4 C-1.99 3.67 -2.98 3.34 -4 3 C-4.33 3.99 -4.66 4.98 -5 6 C-5.33 4.68 -5.66 3.36 -6 2 C-2.25 0 -2.25 0 0 0 Z " fill="#EAB92F" transform="translate(55,88)"/>
<path d="M0 0 C0.99 0 1.98 0 3 0 C4.125 2.25 4.125 2.25 5 5 C4.125 7.3125 4.125 7.3125 3 9 C2.34 9 1.68 9 1 9 C-1.09230769 4.56923077 -1.09230769 4.56923077 -0.625 1.6875 C-0.41875 1.130625 -0.2125 0.57375 0 0 Z " fill="#F1D7BB" transform="translate(43,24)"/>
<path d="M0 0 C0.763125 0.598125 1.52625 1.19625 2.3125 1.8125 C2.3125 3.1325 2.3125 4.4525 2.3125 5.8125 C-1.05341866 4.36996343 -3.19797079 2.47985273 -5.6875 -0.1875 C-2.6875 -1.1875 -2.6875 -1.1875 0 0 Z " fill="#F3E7DA" transform="translate(61.6875,113.1875)"/>
<path d="M0 0 C0.99 0.33 1.98 0.66 3 1 C3 1.99 3 2.98 3 4 C3.66 4 4.32 4 5 4 C5 3.34 5 2.68 5 2 C5.66 2 6.32 2 7 2 C6.67 3.65 6.34 5.3 6 7 C5.01 7 4.02 7 3 7 C2.01 4.69 1.02 2.38 0 0 Z " fill="#FDE098" transform="translate(55,90)"/>
<path d="M0 0 C0.99 0.33 1.98 0.66 3 1 C3.33 2.98 3.66 4.96 4 7 C3.34 6.67 2.68 6.34 2 6 C0.67139075 5.64830932 -0.66158328 5.31229724 -2 5 C-1.34 3.35 -0.68 1.7 0 0 Z " fill="#E3947B" transform="translate(83,68)"/>
<path d="M0 0 C0.66 0 1.32 0 2 0 C1.5317879 4.77576339 0.75668002 8.04476345 -2 12 C-3.32 11.67 -4.64 11.34 -6 11 C-5 9 -5 9 -2 8 C-0.56221123 4.09454286 -0.56221123 4.09454286 0 0 Z " fill="#FAE6B3" transform="translate(69,85)"/>
<path d="M0 0 C0 0.66 0 1.32 0 2 C-2.8125 3.5625 -2.8125 3.5625 -6 5 C-6.99 4.67 -7.98 4.34 -9 4 C-9 3.34 -9 2.68 -9 2 C-5.62902617 0.50178941 -3.79557881 0 0 0 Z " fill="#D89880" transform="translate(85,64)"/>
<path d="M0 0 C0.66 0 1.32 0 2 0 C2 0.99 2 1.98 2 3 C2.66 3.33 3.32 3.66 4 4 C3.67 5.98 3.34 7.96 3 10 C0 6.375 0 6.375 0 3 C-0.66 2.67 -1.32 2.34 -2 2 C-1.34 2 -0.68 2 0 2 C0 1.34 0 0.68 0 0 Z " fill="#F0D1A0" transform="translate(98,57)"/>
<path d="M0 0 C2.97 0.99 5.94 1.98 9 3 C8.67 3.99 8.34 4.98 8 6 C8 5.34 8 4.68 8 4 C7.13375 4.309375 7.13375 4.309375 6.25 4.625 C3.48032433 5.08661261 2.35438733 4.42944945 0 3 C0 2.01 0 1.02 0 0 Z " fill="#F2E6DB" transform="translate(102,32)"/>
<path d="M0 0 C1.32 1.32 2.64 2.64 4 4 C3.01 4.33 2.02 4.66 1 5 C0.26676204 7.01508358 0.26676204 7.01508358 0 9 C-0.99 7.68 -1.98 6.36 -3 5 C-2.34 5 -1.68 5 -1 5 C-0.67 3.35 -0.34 1.7 0 0 Z " fill="#EDBE2C" transform="translate(58,97)"/>
<path d="M0 0 C0.99 0.33 1.98 0.66 3 1 C3 1.66 3 2.32 3 3 C3.66 3.33 4.32 3.66 5 4 C2.03 3.505 2.03 3.505 -1 3 C-1 3.99 -1 4.98 -1 6 C-1.66 6 -2.32 6 -3 6 C-3.33 5.01 -3.66 4.02 -4 3 C-3.34 3 -2.68 3 -2 3 C-2 2.34 -2 1.68 -2 1 C-1.34 0.67 -0.68 0.34 0 0 Z " fill="#CA7256" transform="translate(43,68)"/>
<path d="M0 0 C0.66 0.33 1.32 0.66 2 1 C0.02 1.99 0.02 1.99 -2 3 C-2 5.31 -2 7.62 -2 10 C-4.1519437 6.77208445 -4.20086443 5.71599191 -4 2 C-2.125 0.9375 -2.125 0.9375 0 0 Z " fill="#E9BC31" transform="translate(27,38)"/>
<path d="M0 0 C1.32 0.33 2.64 0.66 4 1 C4.33 3.31 4.66 5.62 5 8 C4.34 8 3.68 8 3 8 C0 2.25 0 2.25 0 0 Z " fill="#D19178" transform="translate(86,65)"/>
<path d="M0 0 C1.32 0.66 2.64 1.32 4 2 C3.01 2.495 3.01 2.495 2 3 C1.27306096 4.97888961 0.60183749 6.97954558 0 9 C-0.66 9 -1.32 9 -2 9 C-1.34 6.03 -0.68 3.06 0 0 Z " fill="#FED9C6" transform="translate(67,35)"/>
<path d="M0 0 C0.66 0 1.32 0 2 0 C3.0326802 2.78823655 3.04509293 3.8677274 2.0625 6.75 C1.711875 7.4925 1.36125 8.235 1 9 C0.67 8.34 0.34 7.68 0 7 C0.33 6.01 0.66 5.02 1 4 C0.01 3.67 -0.98 3.34 -2 3 C-1.34 2.01 -0.68 1.02 0 0 Z " fill="#F2BA23" transform="translate(95,40)"/>
<path d="M0 0 C0.33 0.66 0.66 1.32 1 2 C2.32 2 3.64 2 5 2 C5 1.34 5 0.68 5 0 C5.66 0.33 6.32 0.66 7 1 C5.68 2.32 4.36 3.64 3 5 C0.525 4.01 0.525 4.01 -2 3 C-1.34 2.01 -0.68 1.02 0 0 Z " fill="#ECBB2B" transform="translate(66,98)"/>
<path d="M0 0 C1.32 0.33 2.64 0.66 4 1 C4 2.32 4 3.64 4 5 C4.99 5.33 5.98 5.66 7 6 C6.67 6.99 6.34 7.98 6 9 C4.5 7.75 4.5 7.75 3 6 C3 4.68 3 3.36 3 2 C2.01 2 1.02 2 0 2 C0 1.34 0 0.68 0 0 Z " fill="#F8BE14" transform="translate(51,91)"/>
<path d="M0 0 C1.65 0.33 3.3 0.66 5 1 C5 1.99 5 2.98 5 4 C4.01 4.33 3.02 4.66 2 5 C2 4.34 2 3.68 2 3 C1.01 3 0.02 3 -1 3 C-0.67 2.01 -0.34 1.02 0 0 Z " fill="#FCF1E5" transform="translate(93,59)"/>
<path d="M0 0 C1.74627478 2.61941217 2.38722388 4.03824877 3 7 C1.02 6.34 -0.96 5.68 -3 5 C-2.67 4.01 -2.34 3.02 -2 2 C-1.34 2 -0.68 2 0 2 C0 1.34 0 0.68 0 0 Z " fill="#FBDBCA" transform="translate(69,42)"/>
<path d="M0 0 C1.17539996 0.92652701 2.34010577 1.86663387 3.5 2.8125 C4.1496875 3.33457031 4.799375 3.85664062 5.46875 4.39453125 C7 6 7 6 7 9 C4 8 4 8 2.9375 6.1875 C2.628125 5.465625 2.31875 4.74375 2 4 C1.33822178 2.66423363 0.67223958 1.33053229 0 0 Z " fill="#FEE69F" transform="translate(55,103)"/>
<path d="M0 0 C0.99 0 1.98 0 3 0 C2.67 1.32 2.34 2.64 2 4 C1.34 4 0.68 4 0 4 C0 4.66 0 5.32 0 6 C-0.66 6 -1.32 6 -2 6 C-1.125 1.125 -1.125 1.125 0 0 Z " fill="#DC967E" transform="translate(88,74)"/>
<path d="M0 0 C1.65 0 3.3 0 5 0 C4.67 1.98 4.34 3.96 4 6 C3.01 5.67 2.02 5.34 1 5 C0.67 3.35 0.34 1.7 0 0 Z " fill="#D09881" transform="translate(48,67)"/>
<path d="M0 0 C0.66 0 1.32 0 2 0 C2 1.32 2 2.64 2 4 C2.66 4.33 3.32 4.66 4 5 C2.02 5.33 0.04 5.66 -2 6 C-2 5.34 -2 4.68 -2 4 C-1.34 4 -0.68 4 0 4 C0 2.68 0 1.36 0 0 Z " fill="#F9E8DC" transform="translate(82,58)"/>
<path d="M0 0 C1.98 0 3.96 0 6 0 C6 0.66 6 1.32 6 2 C5.360625 2.12375 4.72125 2.2475 4.0625 2.375 C3.381875 2.58125 2.70125 2.7875 2 3 C1.67 3.66 1.34 4.32 1 5 C0.67 3.35 0.34 1.7 0 0 Z " fill="#D29C8A" transform="translate(61,44)"/>
<path d="M0 0 C2.97 0.495 2.97 0.495 6 1 C6 2.32 6 3.64 6 5 C3.5625 4.1875 3.5625 4.1875 1 3 C0.67 2.01 0.34 1.02 0 0 Z " fill="#FCF5E9" transform="translate(68,11)"/>
<path d="M0 0 C4.41889613 1.35021826 6.34345343 3.26115668 9 7 C4.58110387 5.64978174 2.65654657 3.73884332 0 0 Z " fill="#EDE1DD" transform="translate(62,5)"/>
<path d="M0 0 C2.475 0.99 2.475 0.99 5 2 C5 2.99 5 3.98 5 5 C2.525 4.01 2.525 4.01 0 3 C0 2.01 0 1.02 0 0 Z " fill="#F9F4EA" transform="translate(53,109)"/>
<path d="M0 0 C1.32 0.33 2.64 0.66 4 1 C4 2.65 4 4.3 4 6 C3.01 6.495 3.01 6.495 2 7 C1.34 4.69 0.68 2.38 0 0 Z " fill="#F3BB27" transform="translate(71,90)"/>
<path d="M0 0 C0 1.65 0 3.3 0 5 C-1.32 5 -2.64 5 -4 5 C-4 3.68 -4 2.36 -4 1 C-2 0 -2 0 0 0 Z " fill="#F5D498" transform="translate(25,67)"/>
<path d="M0 0 C0.66 0.99 1.32 1.98 2 3 C-0.475 4.485 -0.475 4.485 -3 6 C-3.99 4.35 -4.98 2.7 -6 1 C-5.34 1 -4.68 1 -4 1 C-4 1.66 -4 2.32 -4 3 C-2.68 3 -1.36 3 0 3 C0 2.01 0 1.02 0 0 Z " fill="#E8B850" transform="translate(33,53)"/>
<path d="M0 0 C1.70884005 1.62339805 3.37446717 3.29319053 5 5 C5 5.66 5 6.32 5 7 C4.01 7 3.02 7 2 7 C0.25 5.1875 0.25 5.1875 -1 3 C-0.67 2.01 -0.34 1.02 0 0 Z " fill="#FCDF90" transform="translate(101,47)"/>
<path d="M0 0 C0.99 0 1.98 0 3 0 C2.6875 1.9375 2.6875 1.9375 2 4 C1.01 4.33 0.02 4.66 -1 5 C-1 1 -1 1 0 0 Z " fill="#E2B6A0" transform="translate(52,45)"/>
<path d="M0 0 C-0.33 1.32 -0.66 2.64 -1 4 C-2.32 4 -3.64 4 -5 4 C-5 3.01 -5 2.02 -5 1 C-3 0 -3 0 0 0 Z " fill="#E4B8A0" transform="translate(78,32)"/>
<path d="M0 0 C0.4125 0.45375 0.825 0.9075 1.25 1.375 C3.06408095 3.05950374 4.75285627 3.99265971 7 5 C4.1875 5.25 4.1875 5.25 1 5 C-0.875 3 -0.875 3 -2 1 C-1.34 0.67 -0.68 0.34 0 0 Z " fill="#F4DA9C" transform="translate(55,16)"/>
<path d="M0 0 C2 1 2 1 2 1 Z " fill="#FFFFFF" transform="translate(6,31)"/>
<path d="" fill="#FFFFFF" transform="translate(0,0)"/>
<path d="" fill="#FFFFFF" transform="translate(0,0)"/>
<path d="" fill="#FFFFFF" transform="translate(0,0)"/>
<path d="" fill="#FFFFFF" transform="translate(0,0)"/>
<path d="" fill="#FFFFFF" transform="translate(0,0)"/>
<path d="" fill="#FFFFFF" transform="translate(0,0)"/>
<path d="" fill="#FFFFFF" transform="translate(0,0)"/>
<path d="" fill="#FFFFFF" transform="translate(0,0)"/>
<path d="" fill="#FFFFFF" transform="translate(0,0)"/>
<path d="" fill="#FFFFFF" transform="translate(0,0)"/>
<path d="" fill="#FFFFFF" transform="translate(0,0)"/>
<path d="" fill="#FFFFFF" transform="translate(0,0)"/>
<path d="" fill="#FFFFFF" transform="translate(0,0)"/>
<path d="" fill="#FFFFFF" transform="translate(0,0)"/>
<path d="" fill="#FFFFFF" transform="translate(0,0)"/>
<path d="" fill="#FFFFFF" transform="translate(0,0)"/>
<path d="" fill="#FFFFFF" transform="translate(0,0)"/>
<path d="" fill="#FFFFFF" transform="translate(0,0)"/>
<path d="" fill="#FFFFFF" transform="translate(0,0)"/>
<path d="" fill="#FFFFFF" transform="translate(0,0)"/>
<path d="" fill="#FFFFFF" transform="translate(0,0)"/>
<path d="" fill="#FFFFFF" transform="translate(0,0)"/>
<path d="" fill="#FFFFFF" transform="translate(0,0)"/>
<path d="" fill="#FEFFFF" transform="translate(0,0)"/>
<path d="" fill="#FFFFFF" transform="translate(0,0)"/>
<path d="" fill="#FFFEFF" transform="translate(0,0)"/>
<path d="" fill="#FFFFFF" transform="translate(0,0)"/>
<path d="" fill="#FFFFFF" transform="translate(0,0)"/>
<path d="" fill="#FFFFFF" transform="translate(0,0)"/>
<path d="" fill="#FFFFFF" transform="translate(0,0)"/>
<path d="" fill="#FFFFFF" transform="translate(0,0)"/>
<path d="" fill="#FFFFFF" transform="translate(0,0)"/>
<path d="" fill="#FFFFFF" transform="translate(0,0)"/>
<path d="" fill="#FFFFFF" transform="translate(0,0)"/>
<path d="" fill="#FFFFFF" transform="translate(0,0)"/>
<path d="" fill="#FFFFFF" transform="translate(0,0)"/>
<path d="" fill="#FFFFFF" transform="translate(0,0)"/>
<path d="" fill="#FFFFFF" transform="translate(0,0)"/>
<path d="" fill="#FFFFFF" transform="translate(0,0)"/>
<path d="" fill="#FFFFFF" transform="translate(0,0)"/>
<path d="" fill="#FFFFFF" transform="translate(0,0)"/>
<path d="" fill="#FFFFFF" transform="translate(0,0)"/>
<path d="" fill="#FFFFFF" transform="translate(0,0)"/>
<path d="" fill="#FFFFFF" transform="translate(0,0)"/>
<path d="" fill="#FFFFFF" transform="translate(0,0)"/>
<path d="" fill="#FFFFFF" transform="translate(0,0)"/>
<path d="" fill="#FFFFFF" transform="translate(0,0)"/>
<path d="" fill="#FFFFFF" transform="translate(0,0)"/>
<path d="" fill="#FFFFFF" transform="translate(0,0)"/>
<path d="" fill="#FFFFFF" transform="translate(0,0)"/>
</svg>
